<svg width="86" height="83" viewBox="0 0 86 83" fill="none" xmlns="http://www.w3.org/2000/svg">
<path d="M53.589 73.492L53.5805 73.4859L53.5717 73.4802C51.9578 72.436 50.704 70.9038 49.6207 69.2298C48.2725 67.1103 47.5 64.5042 47.5 61.9C47.5 54.8493 52.7166 48.9599 59.4707 47.995L59.5511 47.9835L59.6236 47.9472C59.6434 47.9373 59.6978 47.9202 59.7998 47.91C59.8963 47.9004 59.9972 47.9 60.1 47.9H60.1414L60.1822 47.8932C60.7369 47.8008 61.1992 47.8 61.7 47.8C62.5929 47.8 63.4766 47.974 64.3677 48.1494C64.6106 48.1973 64.854 48.2452 65.0983 48.2897C70.8761 49.6435 75.2191 54.7564 75.7016 60.7402L75.7049 60.7813L75.715 60.8213C75.7973 61.1509 75.8 61.4871 75.8 62C75.8 63.3778 75.701 64.5161 75.3257 65.6419L75.3214 65.6548L75.3178 65.6678C73.6747 71.6603 68.2649 76.1 61.7 76.1C58.6111 76.1 55.9109 75.1367 53.589 73.492ZM56.002 42.6097L55.9761 42.6149L55.9509 42.6228C47.7566 45.1835 41.6 52.7666 41.6 61.9C41.6 64.5071 42.1073 67.0318 43.0469 69.3205C37.6233 69.428 32.146 68.6244 28.5096 66.946L28.4947 66.9392L28.4795 66.9333C27.2638 66.4658 26.2205 65.7148 25.3317 65.0245C24.6596 64.3503 24.1231 63.7115 23.7643 62.8143L23.7565 62.795L23.7472 62.7764C23.3904 62.0628 23.2 61.1439 23.2 60.1C23.2 48.055 28.8263 39.3176 34.8758 35.3171L34.8907 35.3072L34.9049 35.2963C36.1454 34.3421 37.4895 33.7629 38.7795 33.2667C40.0129 32.7923 41.3505 32.6 42.5 32.6C43.9085 32.6 45.2404 32.9743 46.8224 33.5674C48.0785 34.0507 49.3354 34.7273 50.5952 35.6963L50.6068 35.7053L50.6189 35.7135C52.9069 37.2693 55.0393 39.5263 56.9265 42.4177C56.7005 42.473 56.4643 42.5191 56.2272 42.5654C56.1521 42.5801 56.0769 42.5947 56.002 42.6097ZM21.2465 69.4536L21.2501 69.4572C23.7992 71.9543 27.8582 73.6313 32.4364 74.5772C36.9473 75.5092 42.0225 75.7439 46.7936 75.3209C50.3815 79.3156 55.644 81.9 61.6 81.9C72.397 81.9 81.065 73.4044 81.5896 62.7494C81.6079 62.7233 81.6227 62.6976 81.6347 62.6736C81.6354 62.6724 81.636 62.6711 81.6366 62.6698C83.7708 60.4989 85.1 57.7049 85.1 54.4C85.1 47.7035 82.8722 40.3069 78.9156 34.6218C77.0852 31.7765 74.9461 29.5344 72.599 27.7992C72.3862 27.639 72.3044 27.3644 72.2002 26.8511C72.2049 26.2164 72.3035 25.5702 72.6899 25.0148C75.1597 22.3274 76.5 18.9165 76.5 15.3C76.5 7.32388 70.0762 0.900024 62.1 0.900024C58.4336 0.900024 54.9538 2.32111 52.4748 4.62962C49.7445 2.42549 46.265 1.00002 42.4 1.00002C38.8315 1.00002 35.5435 2.14381 32.8182 4.24747C30.3656 2.13618 27.173 0.900024 23.7 0.900024C15.7239 0.900024 9.30002 7.32388 9.30002 15.3C9.30002 19.1326 10.8517 22.5466 13.1229 25.0285C13.511 25.5006 13.6823 26.2344 13.6083 26.8054C13.6053 26.8176 13.6023 26.8296 13.5993 26.8417C13.5016 27.2344 13.4215 27.5566 13.1702 27.8221C10.8337 29.5552 8.7042 31.7918 6.8811 34.6271C3.12874 40.3076 0.900024 47.702 0.900024 54.4C0.900024 57.6421 2.15961 60.4667 4.44647 62.7536L4.45213 62.7591C7.74497 65.9491 13.7926 67.6569 20.0474 68.0844C20.4048 68.5298 20.784 68.9911 21.2465 69.4536ZM68.8227 21.284L68.7755 21.3155L68.7365 21.3567C67.1294 23.0584 64.8602 24.1 62.3 24.1C60.4282 24.1 58.7382 23.601 57.2941 22.611C57.9392 20.7112 58.4 18.8474 58.4 16.7C58.4 13.7424 57.5537 10.9766 56.1356 8.58271C57.718 7.12366 59.79 6.20003 62.2 6.20003C67.1239 6.20003 71.2 10.2762 71.2 15.2C71.2 17.1803 70.6413 18.8708 69.6127 20.3807C69.43 20.568 69.2845 20.7546 69.1686 20.9031C69.1516 20.925 69.1351 20.946 69.1194 20.9661C68.9774 21.1468 68.8971 21.2344 68.8227 21.284ZM55.5611 31.9477C57.9239 30.509 60.2981 29.7 62.3 29.7C65.8014 29.7 70.147 31.9889 73.6376 36.2662C76.948 40.3225 79.4504 46.1266 79.6824 53.3063C76.7308 47.0595 70.5639 42.5885 63.2449 42.0228C62.6566 40.6194 61.9719 39.4648 61.1123 38.3164C59.5277 35.8038 57.6008 33.6287 55.5611 31.9477ZM42.4 6.60003C47.9208 6.60003 52.3 11.073 52.3 16.5C52.3 21.927 47.9208 26.4 42.4 26.4C36.8762 26.4 32.5 22.0239 32.5 16.5C32.5 10.9762 36.8762 6.60003 42.4 6.60003ZM29.2373 8.19579C27.6366 10.6867 26.7 13.5576 26.7 16.8C26.7 19.0255 27.1538 21.16 27.9756 23.1177C26.7352 23.9022 25.2644 24.3 23.7 24.3C21.1501 24.3 18.8889 23.2667 17.2829 21.5772C17.2408 21.5209 17.2 21.4656 17.1595 21.4107C16.936 21.1079 16.7238 20.8204 16.3794 20.4724C15.2598 18.9683 14.7 17.2826 14.7 15.3C14.7 10.3762 18.7762 6.30002 23.7 6.30002C25.8265 6.30002 27.6927 6.95823 29.2373 8.19579ZM23.8 29.5C25.6944 29.5 27.9451 30.2117 30.0276 31.446C27.7196 33.2907 25.6751 35.4991 23.979 38.2303C19.8314 44.505 17.2988 52.6988 17.5 60.0069V60.0334C17.5 60.6765 17.5 61.3604 17.585 62.0189C15.7093 61.7657 13.9358 61.3766 12.3956 60.8632C10.6679 60.2873 9.26632 59.5657 8.33788 58.7314C6.94726 57.4321 6.40002 56.0678 6.40002 54.2C6.40002 46.5148 8.98552 40.3266 12.4624 36.0662C15.953 31.7889 20.2986 29.5 23.8 29.5Z" fill="#99A0AC"/>
<mask id="path-2-inside-1_86_39" fill="white">
<path d="M62.9114 58.7531L62.9274 58.7456L62.9428 58.7371C63.609 58.367 64.2897 58.0103 64.9777 57.6552C64.8632 58.1698 64.769 58.6881 64.7211 59.1831C64.662 59.7933 64.6699 60.3999 64.8182 60.9338L64.8216 60.9461L64.8257 60.9581C65.1187 61.8374 65.8586 62.6705 66.6554 63.4081C65.6057 63.5263 64.5426 63.7554 63.8043 64.2968C63.083 64.8258 62.5353 65.7353 62.0929 66.6813C61.9203 66.3095 61.7341 65.9482 61.5315 65.6161C61.2163 65.0997 60.8447 64.6261 60.3957 64.2968C59.6662 63.7619 58.6184 63.5136 57.5739 63.381C58.3594 62.6501 59.0849 61.8266 59.3743 60.9581C59.6859 60.0234 59.5503 58.8278 59.3061 57.6985C59.9656 58.0393 60.6181 58.382 61.2572 58.7371L61.2667 58.7424L61.2764 58.7472C61.5849 58.9015 61.888 58.9572 62.172 58.9397C62.4097 58.9297 62.6589 58.8709 62.9114 58.7531ZM64.318 54.2071C63.6457 54.5523 62.9688 54.8999 62.3 55.2581C61.6312 54.8999 60.9543 54.5523 60.282 54.2071L60.2784 54.2052C59.3521 53.7296 58.4345 53.2583 57.5428 52.7629L57.5333 52.7576L57.5236 52.7528C56.8555 52.4187 56.1474 52.509 55.6411 52.9068C55.1384 53.3018 54.8765 53.9659 55.0081 54.6894L55.0097 54.6981C55.0592 54.9454 55.1084 55.1978 55.156 55.4525L55.1196 55.4829L55.1665 55.5089C55.3065 56.2629 55.431 57.0348 55.5025 57.7498L55.5041 57.766L55.5068 57.7822C55.5562 58.0785 55.6057 58.4003 55.6558 58.726L55.6561 58.7279C55.7059 59.0516 55.7563 59.3791 55.8068 59.6822L55.8133 59.7209L55.8257 59.7581C55.8318 59.7766 55.8374 59.7969 55.8425 59.8189C55.7515 59.8961 55.656 59.9817 55.5598 60.0711C55.048 60.5464 54.4289 61.2086 54.2238 61.4691L53.1464 62.5465L52.0464 63.6465C51.5971 64.0958 51.4839 64.7858 51.6126 65.3489C51.7454 65.9301 52.1765 66.5201 52.9502 66.5975C53.4379 66.6463 53.9521 66.7197 54.4793 66.795L54.4851 66.7958C55.0004 66.8694 55.5282 66.9448 56.0336 66.9959C56.089 67.0052 56.1618 67.0178 56.2481 67.0327C56.633 67.0992 57.2845 67.2119 57.8357 67.2834C58.0008 67.3048 58.1677 67.324 58.3218 67.3368C58.3887 67.4949 58.4695 67.6661 58.551 67.8324C58.6853 68.1068 58.8391 68.4027 58.9751 68.6644C58.9942 68.7012 59.0129 68.7372 59.0312 68.7725C59.1874 69.0735 59.2973 69.2895 59.3358 69.3857L59.3475 69.4151L59.3629 69.4428C59.6037 69.8762 59.8219 70.3364 60.0481 70.814L60.0516 70.8214C60.1077 70.9398 60.1643 71.0594 60.2218 71.1794L60.2121 71.2H60.2317C60.3977 71.5465 60.5708 71.8964 60.7581 72.2342C61.0703 72.8465 61.728 73.1 62.3 73.1C62.872 73.1 63.5297 72.8465 63.8419 72.2342C64.0978 71.7726 64.3271 71.2885 64.5484 70.8214L64.5519 70.814C64.7781 70.3364 64.9963 69.8762 65.2371 69.4428L65.2424 69.4333L65.2472 69.4236C65.2896 69.3389 65.3657 69.1948 65.459 69.0185C65.6455 68.6657 65.9002 68.1839 66.0884 67.7911C66.1609 67.6397 66.2325 67.4839 66.2927 67.3377C66.4534 67.3251 66.628 67.3055 66.8006 67.2835C67.4825 67.1967 68.2913 67.0507 68.5739 66.9951C69.077 66.9441 69.6021 66.8691 70.1149 66.7958L70.1207 66.795C70.6479 66.7197 71.1621 66.6463 71.6497 66.5975C72.4235 66.5201 72.8546 65.9301 72.9874 65.3489C73.1161 64.7858 73.0029 64.0958 72.5535 63.6465L72.5494 63.6423L72.5453 63.6382L72.5412 63.6341L72.5371 63.63L72.533 63.6259L72.5289 63.6218L72.5248 63.6177L72.5207 63.6136L72.5165 63.6094L72.5124 63.6053L72.5083 63.6012L72.5042 63.5971L72.5 63.5929L72.4959 63.5888L72.4918 63.5847L72.4876 63.5805L72.4835 63.5764L72.4794 63.5723L72.4752 63.5681L72.4711 63.564L72.4669 63.5598L72.4628 63.5557L72.4586 63.5515L72.4545 63.5474L72.4503 63.5432L72.4462 63.5391L72.442 63.5349L72.4378 63.5307L72.4337 63.5266L72.4295 63.5224L72.4253 63.5182L72.4212 63.5141L72.417 63.5099L72.4128 63.5057L72.4087 63.5016L72.4045 63.4974L72.4003 63.4932L72.3961 63.489L72.3919 63.4848L72.3878 63.4807L72.3836 63.4765L72.3794 63.4723L72.3752 63.4681L72.371 63.4639L72.3668 63.4597L72.3626 63.4555L72.3584 63.4513L72.3542 63.4471L72.35 63.4429L72.3458 63.4387L72.3416 63.4345L72.3374 63.4303L72.3332 63.4261L72.329 63.4219L72.3247 63.4177L72.3205 63.4134L72.3163 63.4092L72.3121 63.405L72.3079 63.4008L72.3037 63.3966L72.2994 63.3923L72.2952 63.3881L72.291 63.3839L72.2868 63.3797L72.2825 63.3754L72.2783 63.3712L72.2741 63.367L72.2698 63.3627L72.2656 63.3585L72.2613 63.3542L72.2571 63.35L72.2529 63.3458L72.2486 63.3415L72.2444 63.3373L72.2401 63.333L72.2359 63.3288L72.2316 63.3245L72.2274 63.3203L72.2231 63.316L72.2189 63.3118L72.2146 63.3075L72.2103 63.3033L72.2061 63.299L72.2018 63.2947L72.1976 63.2905L72.1933 63.2862L72.189 63.2819L72.1848 63.2777L72.1805 63.2734L72.1762 63.2691L72.172 63.2649L72.1677 63.2606L72.1634 63.2563L72.1591 63.252L72.1549 63.2478L72.1506 63.2435L72.1463 63.2392L72.142 63.2349L72.1377 63.2306L72.1334 63.2263L72.1292 63.2221L72.1249 63.2178L72.1206 63.2135L72.1163 63.2092L72.112 63.2049L72.1077 63.2006L72.1034 63.1963L72.0991 63.192L72.0948 63.1877L72.0905 63.1834L72.0862 63.1791L72.0819 63.1748L72.0776 63.1705L72.0733 63.1662L72.069 63.1619L72.0647 63.1576L72.0604 63.1533L72.0561 63.149L72.0518 63.1447L72.0475 63.1404L72.0431 63.136L72.0388 63.1317L72.0345 63.1274L72.0302 63.1231L72.0259 63.1188L72.0216 63.1145L72.0172 63.1101L72.0129 63.1058L72.0086 63.1015L72.0043 63.0972L72 63.0929L71.9956 63.0885L71.9913 63.0842L71.987 63.0799L71.9826 63.0756L71.9783 63.0712L71.974 63.0669L71.9697 63.0626L71.9653 63.0582L71.961 63.0539L71.9567 63.0496L71.9523 63.0452L71.948 63.0409L71.9436 63.0365L71.9393 63.0322L71.935 63.0279L71.9306 63.0235L71.9263 63.0192L71.9219 63.0148L71.9176 63.0105L71.9132 63.0062L71.9089 63.0018L71.9046 62.9975L71.9002 62.9931L71.8959 62.9888L71.8915 62.9844L71.8872 62.9801L71.8828 62.9757L71.8785 62.9714L71.8741 62.967L71.8698 62.9627L71.8654 62.9583L71.861 62.9539L71.8567 62.9496L71.8523 62.9452L71.848 62.9409L71.8436 62.9365L71.8393 62.9322L71.8349 62.9278L71.8305 62.9234L71.8262 62.9191L71.8218 62.9147L71.8174 62.9103L71.8131 62.906L71.8087 62.9016L71.8043 62.8973L71.8 62.8929L71.7956 62.8885L71.7912 62.8842L71.7869 62.8798L71.7825 62.8754L71.7781 62.871L71.7738 62.8667L71.7694 62.8623L71.765 62.8579L71.7607 62.8536L71.7563 62.8492L71.7519 62.8448L71.7475 62.8404L71.7432 62.8361L71.7388 62.8317L71.7344 62.8273L71.73 62.8229L71.7257 62.8186L71.7213 62.8142L71.7169 62.8098L71.7125 62.8054L71.7081 62.801L71.7038 62.7967L71.6994 62.7923L71.695 62.7879L71.6906 62.7835L71.6862 62.7791L71.6819 62.7748L71.6775 62.7704L71.6731 62.766L71.6687 62.7616L71.6643 62.7572L71.6599 62.7528L71.6556 62.7485L71.6512 62.7441L71.6468 62.7397L71.6424 62.7353L71.638 62.7309L71.6336 62.7265L71.6292 62.7221L71.6248 62.7178L71.6205 62.7134L71.6161 62.709L71.6117 62.7046L71.6073 62.7002L71.6029 62.6958L71.5985 62.6914L71.5941 62.687L71.5897 62.6826L71.5853 62.6782L71.581 62.6739L71.5766 62.6695L71.5722 62.6651L71.5678 62.6607L71.5634 62.6563L71.559 62.6519L71.5546 62.6475L71.5502 62.6431L71.5458 62.6387L71.5414 62.6343L71.537 62.6299L71.5326 62.6255L71.5282 62.6212L71.5239 62.6168L71.5195 62.6124L71.5151 62.608L71.5107 62.6036L71.5063 62.5992L71.5019 62.5948L71.4975 62.5904L71.4931 62.586L71.4887 62.5816L71.4843 62.5772L71.4799 62.5728L71.4755 62.5684L71.4711 62.564L71.4667 62.5596L71.4623 62.5552L71.4579 62.5508L71.4536 62.5465L71.4492 62.5421L71.4448 62.5377L71.4404 62.5333L71.436 62.5289L71.4316 62.5245L71.4272 62.5201L71.4228 62.5157L71.4184 62.5113L71.414 62.5069L71.4096 62.5025L71.4052 62.4981L71.4008 62.4937L71.3964 62.4893L71.392 62.4849L71.3876 62.4805L71.3832 62.4761L71.3789 62.4718L71.3745 62.4674L71.3701 62.463L71.3657 62.4586L71.3613 62.4542L71.3569 62.4498L71.3525 62.4454L71.3481 62.441L71.3437 62.4366L71.3393 62.4322L71.3349 62.4278L71.3305 62.4234L71.3261 62.419L71.3218 62.4147L71.3174 62.4103L71.313 62.4059L71.3086 62.4015L71.3042 62.3971L71.2998 62.3927L71.2954 62.3883L71.291 62.3839L71.2866 62.3795L71.2823 62.3752L71.2779 62.3708L71.2735 62.3664L71.2691 62.362L71.2647 62.3576L71.2603 62.3532L71.2559 62.3488L71.2515 62.3445L71.2472 62.3401L71.2428 62.3357L71.2384 62.3313L71.234 62.3269L71.2296 62.3225L71.2252 62.3181L71.2209 62.3138L71.2165 62.3094L71.2121 62.305L71.2077 62.3006L71.2033 62.2962L71.199 62.2919L71.1946 62.2875L71.1902 62.2831L71.1858 62.2787L71.1814 62.2743L71.1771 62.27L71.1727 62.2656L71.1683 62.2612L71.1639 62.2568L71.1596 62.2525L71.1552 62.2481L71.1508 62.2437L71.1464 62.2393L71.1421 62.235L71.1377 62.2306L71.1333 62.2262L71.129 62.2219L71.1246 62.2175L71.1202 62.2131L71.1159 62.2088L71.1115 62.2044L71.1071 62.2L71.1028 62.1957L71.0984 62.1913L71.094 62.1869L71.0897 62.1826L71.0853 62.1782L71.0809 62.1738L71.0766 62.1695L71.0722 62.1651L71.0678 62.1608L71.0635 62.1564L71.0591 62.152L71.0548 62.1477L71.0504 62.1433L71.0461 62.139L71.0417 62.1346L71.0373 62.1303L71.033 62.1259L71.0286 62.1215L71.0243 62.1172L71.0199 62.1128L71.0156 62.1085L71.0112 62.1041L71.0069 62.0998L71.0025 62.0954L70.9982 62.0911L70.9939 62.0868L70.9895 62.0824L70.9852 62.0781L70.9808 62.0737L70.9765 62.0694L70.9721 62.065L70.9678 62.0607L70.9635 62.0564L70.9591 62.052L70.9548 62.0477L70.9504 62.0434L70.9461 62.039L70.9418 62.0347L70.9374 62.0303L70.9331 62.026L70.9288 62.0217L70.9245 62.0174L70.9201 62.013L70.9158 62.0087L70.9115 62.0044L70.9071 62L70.9028 61.9957L70.8985 61.9914L70.8942 61.9871L70.8899 61.9828L70.8855 61.9784L70.8812 61.9741L70.8769 61.9698L70.8726 61.9655L70.8683 61.9612L70.864 61.9569L70.8596 61.9525L70.8553 61.9482L70.851 61.9439L70.8467 61.9396L70.8424 61.9353L70.8381 61.931L70.8338 61.9267L70.8295 61.9224L70.8252 61.9181L70.8209 61.9138L70.8166 61.9095L70.8123 61.9052L70.808 61.9009L70.8037 61.8966L70.7994 61.8923L70.7951 61.888L70.7908 61.8837L70.7865 61.8794L70.7822 61.8751L70.7779 61.8709L70.7737 61.8666L70.7694 61.8623L70.7651 61.858L70.7608 61.8537L70.7565 61.8494L70.7523 61.8452L70.748 61.8409L70.7437 61.8366L70.7394 61.8323L70.7351 61.8281L70.7309 61.8238L70.7266 61.8195L70.7223 61.8152L70.7181 61.811L70.7138 61.8067L70.7095 61.8024L70.7053 61.7982L70.701 61.7939L70.6968 61.7897L70.6925 61.7854L70.6882 61.7811L70.684 61.7769L70.6797 61.7726L70.6755 61.7684L70.6712 61.7641L70.667 61.7599L70.6627 61.7556L70.6585 61.7514L70.6542 61.7471L70.65 61.7429L70.6458 61.7387L70.6415 61.7344L70.6373 61.7302L70.633 61.7259L70.6288 61.7217L70.6246 61.7175L70.6203 61.7133L70.6161 61.709L70.6119 61.7048L70.6077 61.7006L70.6034 61.6963L70.5992 61.6921L70.595 61.6879L70.5908 61.6837L70.5866 61.6795L70.5824 61.6753L70.5781 61.671L70.5739 61.6668L70.5697 61.6626L70.5655 61.6584L70.5613 61.6542L70.5571 61.65L70.5529 61.6458L70.5487 61.6416L70.5445 61.6374L70.5403 61.6332L70.5361 61.629L70.5319 61.6248L70.5277 61.6206L70.5235 61.6164L70.5194 61.6123L70.5152 61.6081L70.511 61.6039L70.5068 61.5997L70.5026 61.5955L70.4984 61.5913L70.4943 61.5872L70.4901 61.583L70.4859 61.5788L70.4818 61.5747L70.4776 61.5705L70.4734 61.5663L70.4693 61.5622L70.4651 61.558L70.4609 61.5538L70.4568 61.5497L70.4526 61.5455L70.4485 61.5414L70.4443 61.5372L70.4402 61.5331L70.436 61.5289L70.4319 61.5248L70.4277 61.5206L70.4236 61.5165L70.4195 61.5124L70.4153 61.5082L70.4112 61.5041L70.4071 61.5L70.4029 61.4958L70.3988 61.4917L70.3947 61.4876L70.3906 61.4835L70.3864 61.4793L70.3823 61.4752L70.3782 61.4711L70.3741 61.467L70.37 61.4629L70.3659 61.4588L70.3618 61.4547L70.3577 61.4506L70.3536 61.4465C70.305 61.3979 70.2159 61.3047 70.1015 61.1851C69.8159 60.8865 69.3725 60.4228 69.0071 60.0752C68.928 60 68.8497 59.9274 68.7744 59.8602C68.7776 59.8081 68.7821 59.7598 68.7881 59.7159C68.8956 59.3779 68.9473 59.0268 68.9842 58.7073C68.9975 58.5918 69.0087 58.4831 69.0195 58.3791C69.0412 58.1691 69.0608 57.9784 69.0919 57.7899C69.2908 56.7949 69.4928 55.686 69.5956 54.6685C69.7184 53.9532 69.4568 53.298 68.9589 52.9068C68.4526 52.509 67.7446 52.4187 67.0764 52.7528L67.0667 52.7576L67.0572 52.7629C66.785 52.9141 66.5104 53.0631 66.2338 53.2107L66.0502 53.0576L66.0043 53.3325C65.4493 53.6261 64.887 53.9149 64.3216 54.2052L64.318 54.2071Z"/>
</mask>
<path d="M62.9114 58.7531L62.9274 58.7456L62.9428 58.7371C63.609 58.367 64.2897 58.0103 64.9777 57.6552C64.8632 58.1698 64.769 58.6881 64.7211 59.1831C64.662 59.7933 64.6699 60.3999 64.8182 60.9338L64.8216 60.9461L64.8257 60.9581C65.1187 61.8374 65.8586 62.6705 66.6554 63.4081C65.6057 63.5263 64.5426 63.7554 63.8043 64.2968C63.083 64.8258 62.5353 65.7353 62.0929 66.6813C61.9203 66.3095 61.7341 65.9482 61.5315 65.6161C61.2163 65.0997 60.8447 64.6261 60.3957 64.2968C59.6662 63.7619 58.6184 63.5136 57.5739 63.381C58.3594 62.6501 59.0849 61.8266 59.3743 60.9581C59.6859 60.0234 59.5503 58.8278 59.3061 57.6985C59.9656 58.0393 60.6181 58.382 61.2572 58.7371L61.2667 58.7424L61.2764 58.7472C61.5849 58.9015 61.888 58.9572 62.172 58.9397C62.4097 58.9297 62.6589 58.8709 62.9114 58.7531ZM64.318 54.2071C63.6457 54.5523 62.9688 54.8999 62.3 55.2581C61.6312 54.8999 60.9543 54.5523 60.282 54.2071L60.2784 54.2052C59.3521 53.7296 58.4345 53.2583 57.5428 52.7629L57.5333 52.7576L57.5236 52.7528C56.8555 52.4187 56.1474 52.509 55.6411 52.9068C55.1384 53.3018 54.8765 53.9659 55.0081 54.6894L55.0097 54.6981C55.0592 54.9454 55.1084 55.1978 55.156 55.4525L55.1196 55.4829L55.1665 55.5089C55.3065 56.2629 55.431 57.0348 55.5025 57.7498L55.5041 57.766L55.5068 57.7822C55.5562 58.0785 55.6057 58.4003 55.6558 58.726L55.6561 58.7279C55.7059 59.0516 55.7563 59.3791 55.8068 59.6822L55.8133 59.7209L55.8257 59.7581C55.8318 59.7766 55.8374 59.7969 55.8425 59.8189C55.7515 59.8961 55.656 59.9817 55.5598 60.0711C55.048 60.5464 54.4289 61.2086 54.2238 61.4691L53.1464 62.5465L52.0464 63.6465C51.5971 64.0958 51.4839 64.7858 51.6126 65.3489C51.7454 65.9301 52.1765 66.5201 52.9502 66.5975C53.4379 66.6463 53.9521 66.7197 54.4793 66.795L54.4851 66.7958C55.0004 66.8694 55.5282 66.9448 56.0336 66.9959C56.089 67.0052 56.1618 67.0178 56.2481 67.0327C56.633 67.0992 57.2845 67.2119 57.8357 67.2834C58.0008 67.3048 58.1677 67.324 58.3218 67.3368C58.3887 67.4949 58.4695 67.6661 58.551 67.8324C58.6853 68.1068 58.8391 68.4027 58.9751 68.6644C58.9942 68.7012 59.0129 68.7372 59.0312 68.7725C59.1874 69.0735 59.2973 69.2895 59.3358 69.3857L59.3475 69.4151L59.3629 69.4428C59.6037 69.8762 59.8219 70.3364 60.0481 70.814L60.0516 70.8214C60.1077 70.9398 60.1643 71.0594 60.2218 71.1794L60.2121 71.2H60.2317C60.3977 71.5465 60.5708 71.8964 60.7581 72.2342C61.0703 72.8465 61.728 73.1 62.3 73.1C62.872 73.1 63.5297 72.8465 63.8419 72.2342C64.0978 71.7726 64.3271 71.2885 64.5484 70.8214L64.5519 70.814C64.7781 70.3364 64.9963 69.8762 65.2371 69.4428L65.2424 69.4333L65.2472 69.4236C65.2896 69.3389 65.3657 69.1948 65.459 69.0185C65.6455 68.6657 65.9002 68.1839 66.0884 67.7911C66.1609 67.6397 66.2325 67.4839 66.2927 67.3377C66.4534 67.3251 66.628 67.3055 66.8006 67.2835C67.4825 67.1967 68.2913 67.0507 68.5739 66.9951C69.077 66.9441 69.6021 66.8691 70.1149 66.7958L70.1207 66.795C70.6479 66.7197 71.1621 66.6463 71.6497 66.5975C72.4235 66.5201 72.8546 65.9301 72.9874 65.3489C73.1161 64.7858 73.0029 64.0958 72.5535 63.6465L72.5494 63.6423L72.5453 63.6382L72.5412 63.6341L72.5371 63.63L72.533 63.6259L72.5289 63.6218L72.5248 63.6177L72.5207 63.6136L72.5165 63.6094L72.5124 63.6053L72.5083 63.6012L72.5042 63.5971L72.5 63.5929L72.4959 63.5888L72.4918 63.5847L72.4876 63.5805L72.4835 63.5764L72.4794 63.5723L72.4752 63.5681L72.4711 63.564L72.4669 63.5598L72.4628 63.5557L72.4586 63.5515L72.4545 63.5474L72.4503 63.5432L72.4462 63.5391L72.442 63.5349L72.4378 63.5307L72.4337 63.5266L72.4295 63.5224L72.4253 63.5182L72.4212 63.5141L72.417 63.5099L72.4128 63.5057L72.4087 63.5016L72.4045 63.4974L72.4003 63.4932L72.3961 63.489L72.3919 63.4848L72.3878 63.4807L72.3836 63.4765L72.3794 63.4723L72.3752 63.4681L72.371 63.4639L72.3668 63.4597L72.3626 63.4555L72.3584 63.4513L72.3542 63.4471L72.35 63.4429L72.3458 63.4387L72.3416 63.4345L72.3374 63.4303L72.3332 63.4261L72.329 63.4219L72.3247 63.4177L72.3205 63.4134L72.3163 63.4092L72.3121 63.405L72.3079 63.4008L72.3037 63.3966L72.2994 63.3923L72.2952 63.3881L72.291 63.3839L72.2868 63.3797L72.2825 63.3754L72.2783 63.3712L72.2741 63.367L72.2698 63.3627L72.2656 63.3585L72.2613 63.3542L72.2571 63.35L72.2529 63.3458L72.2486 63.3415L72.2444 63.3373L72.2401 63.333L72.2359 63.3288L72.2316 63.3245L72.2274 63.3203L72.2231 63.316L72.2189 63.3118L72.2146 63.3075L72.2103 63.3033L72.2061 63.299L72.2018 63.2947L72.1976 63.2905L72.1933 63.2862L72.189 63.2819L72.1848 63.2777L72.1805 63.2734L72.1762 63.2691L72.172 63.2649L72.1677 63.2606L72.1634 63.2563L72.1591 63.252L72.1549 63.2478L72.1506 63.2435L72.1463 63.2392L72.142 63.2349L72.1377 63.2306L72.1334 63.2263L72.1292 63.2221L72.1249 63.2178L72.1206 63.2135L72.1163 63.2092L72.112 63.2049L72.1077 63.2006L72.1034 63.1963L72.0991 63.192L72.0948 63.1877L72.0905 63.1834L72.0862 63.1791L72.0819 63.1748L72.0776 63.1705L72.0733 63.1662L72.069 63.1619L72.0647 63.1576L72.0604 63.1533L72.0561 63.149L72.0518 63.1447L72.0475 63.1404L72.0431 63.136L72.0388 63.1317L72.0345 63.1274L72.0302 63.1231L72.0259 63.1188L72.0216 63.1145L72.0172 63.1101L72.0129 63.1058L72.0086 63.1015L72.0043 63.0972L72 63.0929L71.9956 63.0885L71.9913 63.0842L71.987 63.0799L71.9826 63.0756L71.9783 63.0712L71.974 63.0669L71.9697 63.0626L71.9653 63.0582L71.961 63.0539L71.9567 63.0496L71.9523 63.0452L71.948 63.0409L71.9436 63.0365L71.9393 63.0322L71.935 63.0279L71.9306 63.0235L71.9263 63.0192L71.9219 63.0148L71.9176 63.0105L71.9132 63.0062L71.9089 63.0018L71.9046 62.9975L71.9002 62.9931L71.8959 62.9888L71.8915 62.9844L71.8872 62.9801L71.8828 62.9757L71.8785 62.9714L71.8741 62.967L71.8698 62.9627L71.8654 62.9583L71.861 62.9539L71.8567 62.9496L71.8523 62.9452L71.848 62.9409L71.8436 62.9365L71.8393 62.9322L71.8349 62.9278L71.8305 62.9234L71.8262 62.9191L71.8218 62.9147L71.8174 62.9103L71.8131 62.906L71.8087 62.9016L71.8043 62.8973L71.8 62.8929L71.7956 62.8885L71.7912 62.8842L71.7869 62.8798L71.7825 62.8754L71.7781 62.871L71.7738 62.8667L71.7694 62.8623L71.765 62.8579L71.7607 62.8536L71.7563 62.8492L71.7519 62.8448L71.7475 62.8404L71.7432 62.8361L71.7388 62.8317L71.7344 62.8273L71.73 62.8229L71.7257 62.8186L71.7213 62.8142L71.7169 62.8098L71.7125 62.8054L71.7081 62.801L71.7038 62.7967L71.6994 62.7923L71.695 62.7879L71.6906 62.7835L71.6862 62.7791L71.6819 62.7748L71.6775 62.7704L71.6731 62.766L71.6687 62.7616L71.6643 62.7572L71.6599 62.7528L71.6556 62.7485L71.6512 62.7441L71.6468 62.7397L71.6424 62.7353L71.638 62.7309L71.6336 62.7265L71.6292 62.7221L71.6248 62.7178L71.6205 62.7134L71.6161 62.709L71.6117 62.7046L71.6073 62.7002L71.6029 62.6958L71.5985 62.6914L71.5941 62.687L71.5897 62.6826L71.5853 62.6782L71.581 62.6739L71.5766 62.6695L71.5722 62.6651L71.5678 62.6607L71.5634 62.6563L71.559 62.6519L71.5546 62.6475L71.5502 62.6431L71.5458 62.6387L71.5414 62.6343L71.537 62.6299L71.5326 62.6255L71.5282 62.6212L71.5239 62.6168L71.5195 62.6124L71.5151 62.608L71.5107 62.6036L71.5063 62.5992L71.5019 62.5948L71.4975 62.5904L71.4931 62.586L71.4887 62.5816L71.4843 62.5772L71.4799 62.5728L71.4755 62.5684L71.4711 62.564L71.4667 62.5596L71.4623 62.5552L71.4579 62.5508L71.4536 62.5465L71.4492 62.5421L71.4448 62.5377L71.4404 62.5333L71.436 62.5289L71.4316 62.5245L71.4272 62.5201L71.4228 62.5157L71.4184 62.5113L71.414 62.5069L71.4096 62.5025L71.4052 62.4981L71.4008 62.4937L71.3964 62.4893L71.392 62.4849L71.3876 62.4805L71.3832 62.4761L71.3789 62.4718L71.3745 62.4674L71.3701 62.463L71.3657 62.4586L71.3613 62.4542L71.3569 62.4498L71.3525 62.4454L71.3481 62.441L71.3437 62.4366L71.3393 62.4322L71.3349 62.4278L71.3305 62.4234L71.3261 62.419L71.3218 62.4147L71.3174 62.4103L71.313 62.4059L71.3086 62.4015L71.3042 62.3971L71.2998 62.3927L71.2954 62.3883L71.291 62.3839L71.2866 62.3795L71.2823 62.3752L71.2779 62.3708L71.2735 62.3664L71.2691 62.362L71.2647 62.3576L71.2603 62.3532L71.2559 62.3488L71.2515 62.3445L71.2472 62.3401L71.2428 62.3357L71.2384 62.3313L71.234 62.3269L71.2296 62.3225L71.2252 62.3181L71.2209 62.3138L71.2165 62.3094L71.2121 62.305L71.2077 62.3006L71.2033 62.2962L71.199 62.2919L71.1946 62.2875L71.1902 62.2831L71.1858 62.2787L71.1814 62.2743L71.1771 62.27L71.1727 62.2656L71.1683 62.2612L71.1639 62.2568L71.1596 62.2525L71.1552 62.2481L71.1508 62.2437L71.1464 62.2393L71.1421 62.235L71.1377 62.2306L71.1333 62.2262L71.129 62.2219L71.1246 62.2175L71.1202 62.2131L71.1159 62.2088L71.1115 62.2044L71.1071 62.2L71.1028 62.1957L71.0984 62.1913L71.094 62.1869L71.0897 62.1826L71.0853 62.1782L71.0809 62.1738L71.0766 62.1695L71.0722 62.1651L71.0678 62.1608L71.0635 62.1564L71.0591 62.152L71.0548 62.1477L71.0504 62.1433L71.0461 62.139L71.0417 62.1346L71.0373 62.1303L71.033 62.1259L71.0286 62.1215L71.0243 62.1172L71.0199 62.1128L71.0156 62.1085L71.0112 62.1041L71.0069 62.0998L71.0025 62.0954L70.9982 62.0911L70.9939 62.0868L70.9895 62.0824L70.9852 62.0781L70.9808 62.0737L70.9765 62.0694L70.9721 62.065L70.9678 62.0607L70.9635 62.0564L70.9591 62.052L70.9548 62.0477L70.9504 62.0434L70.9461 62.039L70.9418 62.0347L70.9374 62.0303L70.9331 62.026L70.9288 62.0217L70.9245 62.0174L70.9201 62.013L70.9158 62.0087L70.9115 62.0044L70.9071 62L70.9028 61.9957L70.8985 61.9914L70.8942 61.9871L70.8899 61.9828L70.8855 61.9784L70.8812 61.9741L70.8769 61.9698L70.8726 61.9655L70.8683 61.9612L70.864 61.9569L70.8596 61.9525L70.8553 61.9482L70.851 61.9439L70.8467 61.9396L70.8424 61.9353L70.8381 61.931L70.8338 61.9267L70.8295 61.9224L70.8252 61.9181L70.8209 61.9138L70.8166 61.9095L70.8123 61.9052L70.808 61.9009L70.8037 61.8966L70.7994 61.8923L70.7951 61.888L70.7908 61.8837L70.7865 61.8794L70.7822 61.8751L70.7779 61.8709L70.7737 61.8666L70.7694 61.8623L70.7651 61.858L70.7608 61.8537L70.7565 61.8494L70.7523 61.8452L70.748 61.8409L70.7437 61.8366L70.7394 61.8323L70.7351 61.8281L70.7309 61.8238L70.7266 61.8195L70.7223 61.8152L70.7181 61.811L70.7138 61.8067L70.7095 61.8024L70.7053 61.7982L70.701 61.7939L70.6968 61.7897L70.6925 61.7854L70.6882 61.7811L70.684 61.7769L70.6797 61.7726L70.6755 61.7684L70.6712 61.7641L70.667 61.7599L70.6627 61.7556L70.6585 61.7514L70.6542 61.7471L70.65 61.7429L70.6458 61.7387L70.6415 61.7344L70.6373 61.7302L70.633 61.7259L70.6288 61.7217L70.6246 61.7175L70.6203 61.7133L70.6161 61.709L70.6119 61.7048L70.6077 61.7006L70.6034 61.6963L70.5992 61.6921L70.595 61.6879L70.5908 61.6837L70.5866 61.6795L70.5824 61.6753L70.5781 61.671L70.5739 61.6668L70.5697 61.6626L70.5655 61.6584L70.5613 61.6542L70.5571 61.65L70.5529 61.6458L70.5487 61.6416L70.5445 61.6374L70.5403 61.6332L70.5361 61.629L70.5319 61.6248L70.5277 61.6206L70.5235 61.6164L70.5194 61.6123L70.5152 61.6081L70.511 61.6039L70.5068 61.5997L70.5026 61.5955L70.4984 61.5913L70.4943 61.5872L70.4901 61.583L70.4859 61.5788L70.4818 61.5747L70.4776 61.5705L70.4734 61.5663L70.4693 61.5622L70.4651 61.558L70.4609 61.5538L70.4568 61.5497L70.4526 61.5455L70.4485 61.5414L70.4443 61.5372L70.4402 61.5331L70.436 61.5289L70.4319 61.5248L70.4277 61.5206L70.4236 61.5165L70.4195 61.5124L70.4153 61.5082L70.4112 61.5041L70.4071 61.5L70.4029 61.4958L70.3988 61.4917L70.3947 61.4876L70.3906 61.4835L70.3864 61.4793L70.3823 61.4752L70.3782 61.4711L70.3741 61.467L70.37 61.4629L70.3659 61.4588L70.3618 61.4547L70.3577 61.4506L70.3536 61.4465C70.305 61.3979 70.2159 61.3047 70.1015 61.1851C69.8159 60.8865 69.3725 60.4228 69.0071 60.0752C68.928 60 68.8497 59.9274 68.7744 59.8602C68.7776 59.8081 68.7821 59.7598 68.7881 59.7159C68.8956 59.3779 68.9473 59.0268 68.9842 58.7073C68.9975 58.5918 69.0087 58.4831 69.0195 58.3791C69.0412 58.1691 69.0608 57.9784 69.0919 57.7899C69.2908 56.7949 69.4928 55.686 69.5956 54.6685C69.7184 53.9532 69.4568 53.298 68.9589 52.9068C68.4526 52.509 67.7446 52.4187 67.0764 52.7528L67.0667 52.7576L67.0572 52.7629C66.785 52.9141 66.5104 53.0631 66.2338 53.2107L66.0502 53.0576L66.0043 53.3325C65.4493 53.6261 64.887 53.9149 64.3216 54.2052L64.318 54.2071Z" fill="#99A0AC" stroke="#99A0AC" stroke-width="2" mask="url(#path-2-inside-1_86_39)"/>
</svg>
