<svg width="84" height="81" viewBox="0 0 84 81" fill="none" xmlns="http://www.w3.org/2000/svg">
<path d="M48.2 68.5C49.3 70.2 50.6 71.8 52.3 72.9C54.7 74.6 57.5 75.6 60.7 75.6C67.5 75.6 73.1 71 74.8 64.8C75.2 63.6 75.3 62.4 75.3 61C75.3 60.5 75.3 60.1 75.2 59.7C74.7 53.5 70.2 48.2 64.2 46.8C63.1 46.6 61.9 46.3 60.7 46.3C60.2 46.3 59.7 46.3 59.1 46.4C58.9 46.4 58.6 46.4 58.4 46.5C51.4 47.5 46 53.6 46 60.9C46 63.6 46.8 66.3 48.2 68.5ZM42.8 68.8C41.7 66.4 41.1 63.7 41.1 60.9C41.1 52 47.1 44.6 55.1 42.1C55.6 42 56.2 41.9 56.7 41.7C54.7 38.5 52.4 36 49.9 34.3C48.6 33.3 47.3 32.6 46 32.1C44.4 31.5 43 31.1 41.5 31.1C40.3 31.1 38.9 31.3 37.6 31.8C36.3 32.3 34.9 32.9 33.6 33.9C27.4 38 21.7 46.9 21.7 59.1C21.7 60.2 21.9 61.2 22.3 62C22.7 63 23.3 63.7 24 64.4C24.9 65.1 26 65.9 27.3 66.4C31.2 68.2 37.1 69 42.8 68.8ZM83.6 53.4C83.6 56.6 82.3 59.3 80.2 61.4C80.2 61.4 80.2 61.5 80.1 61.5C79.7 72 71.2 80.4 60.6 80.4C54.7 80.4 49.5 77.8 46 73.8C36.4 74.7 25.5 72.9 20.6 68.1C20.1 67.6 19.7 67.1 19.3 66.6C13 66.2 7.00003 64.5 3.80002 61.4C1.60002 59.2 0.400024 56.5 0.400024 53.4C0.400024 46.8 2.60002 39.5 6.30002 33.9C8.10002 31.1 10.2 28.9 12.5 27.2C12.9 26.8 13 26.3 13.1 25.9C13.2 25.2 13 24.3 12.5 23.7C10.3 21.3 8.80002 18 8.80002 14.3C8.80002 6.60002 15 0.400024 22.7 0.400024C26.2 0.400024 29.4 1.70002 31.8 3.90002C34.5 1.70002 37.8 0.500025 41.4 0.500025C45.3 0.500025 48.8 2.00002 51.5 4.30002C53.9 1.90002 57.4 0.400024 61.1 0.400024C68.8 0.400024 75 6.60002 75 14.3C75 17.8 73.7 21.1 71.3 23.7C70.8 24.4 70.7 25.2 70.7 25.9C70.8 26.4 70.9 26.9 71.3 27.2C73.6 28.9 75.7 31.1 77.5 33.9C81.4 39.5 83.6 46.8 83.6 53.4ZM79.1 54.7C79.2 54.2 79.2 53.8 79.2 53.4C79.2 37.8 68.7 28.2 61.3 28.2C59 28.2 56.3 29.2 53.7 30.9C55.9 32.6 58 34.9 59.7 37.6C60.6 38.8 61.3 40 61.9 41.5C70 42 76.7 47.4 79.1 54.7ZM69 19.7C70.1 18.1 70.7 16.3 70.7 14.2C70.7 9.00003 66.4 4.70003 61.2 4.70003C58.5 4.70003 56.2 5.80002 54.5 7.50002C56 9.90002 56.9 12.7 56.9 15.7C56.9 17.9 56.4 19.8 55.7 21.8C57.3 23 59.2 23.6 61.3 23.6C64 23.6 66.4 22.5 68.1 20.7C68.4 20.5 68.6 20.1 69 19.7ZM51.8 15.5C51.8 9.80002 47.2 5.10003 41.4 5.10003C35.6 5.10003 31 9.70002 31 15.5C31 21.3 35.6 25.9 41.4 25.9C47.2 25.9 51.8 21.2 51.8 15.5ZM26.2 15.8C26.2 12.5 27.2 9.60003 28.9 7.10003C27.2 5.60003 25.1 4.80002 22.7 4.80002C17.5 4.80002 13.2 9.10002 13.2 14.3C13.2 16.4 13.8 18.2 15 19.8C15.4 20.2 15.6 20.5 15.9 20.9C17.6 22.7 20 23.8 22.7 23.8C24.5 23.8 26.2 23.3 27.6 22.3C26.7 20.3 26.2 18.1 26.2 15.8ZM23.4 37.5C25.2 34.6 27.4 32.3 29.9 30.4C27.6 28.9 25 28 22.8 28C15.4 28 4.90002 37.6 4.90002 53.2C4.90002 55.2 5.50002 56.7 7.00002 58.1C9.00002 59.9 12.9 61.1 17.2 61.6C17 60.8 17 59.9 17 59C16.8 51.8 19.3 43.7 23.4 37.5Z" fill="#99A0AC"/>
<path d="M61.7 57.3C63.5 56.3 65.4 55.4 67.2 54.4C66.6 53.9 66 53.5 65.4 53C65.1 54.8 63.8 58 64.3 59.8C64.9 61.6 67.8 63.4 69.1 64.7C69.3 64 69.5 63.3 69.7 62.6C67.9 62.9 64.6 62.6 63.1 63.7C61.6 64.8 60.8 68 60 69.7C60.7 69.7 61.4 69.7 62.2 69.7C61.4 68.1 60.6 64.8 59.1 63.7C57.6 62.6 54.3 62.8 52.5 62.6C52.7 63.3 52.9 64 53.1 64.7C54.4 63.4 57.3 61.6 57.9 59.8C58.5 58 57.2 54.8 56.8 53C56.2 53.5 55.6 53.9 55 54.4C56.8 55.4 58.7 56.3 60.5 57.3C61.9 58 63.2 55.9 61.8 55.1C60 54.1 58.1 53.2 56.3 52.2C55.3 51.7 54.3 52.5 54.5 53.6C54.7 54.6 54.9 55.7 55 56.7C55.1 57.3 55.2 58 55.3 58.6C55.5 59.2 55.2 60.2 55.6 59.2C56.1 58.1 53.9 60.4 53.6 60.8C52.9 61.5 52.1 62.3 51.4 63C50.8 63.6 51 65 52 65.1C53 65.2 54.1 65.4 55.1 65.5C55.7 65.6 58.4 66.1 57.8 65.7C57.2 65.3 58.6 67.7 58.8 68.2C59.3 69.1 59.7 70.1 60.2 71C60.6 71.8 62 71.8 62.4 71C62.9 70.1 63.3 69.1 63.8 68.2C64.1 67.6 65.4 65.3 64.8 65.7C64.2 66.1 67 65.6 67.5 65.5C68.5 65.4 69.6 65.2 70.6 65.1C71.6 65 71.8 63.6 71.2 63C70.5 62.3 69.7 61.5 69 60.8C68.6 60.4 66.5 58.1 67 59.2C67.4 60.2 67.2 59.2 67.3 58.6C67.5 58 67.5 57.3 67.6 56.7C67.8 55.7 68 54.6 68.1 53.6C68.3 52.5 67.3 51.7 66.3 52.2C64.5 53.2 62.6 54.1 60.8 55.1C59 55.9 60.2 58 61.7 57.3Z" fill="#99A0AC"/>
</svg>
