<svg width="58" height="42" viewBox="0 0 58 42" fill="none" xmlns="http://www.w3.org/2000/svg">
<path d="M55 4H34V1C34 0.734784 33.8946 0.48043 33.7071 0.292893C33.5196 0.105357 33.2652 0 33 0H25C24.7348 0 24.4804 0.105357 24.2929 0.292893C24.1054 0.48043 24 0.734784 24 1V4H3C2.20462 4.00087 1.44206 4.31722 0.879639 4.87964C0.317218 5.44206 0.000868196 6.20462 0 7V39C0.000868196 39.7954 0.317218 40.5579 0.879639 41.1204C1.44206 41.6828 2.20462 41.9991 3 42H55C55.7954 41.9991 56.5579 41.6828 57.1204 41.1204C57.6828 40.5579 57.9991 39.7954 58 39V7C57.9991 6.20462 57.6828 5.44206 57.1204 4.87964C56.5579 4.31722 55.7954 4.00087 55 4ZM26 2H32V7C32 7.79565 31.6839 8.55871 31.1213 9.12132C30.5587 9.68393 29.7956 10 29 10C28.2044 10 27.4413 9.68393 26.8787 9.12132C26.3161 8.55871 26 7.79565 26 7V2ZM56 39C55.9997 39.2651 55.8942 39.5193 55.7067 39.7067C55.5193 39.8942 55.2651 39.9997 55 40H3C2.73489 39.9997 2.48073 39.8942 2.29327 39.7067C2.10581 39.5193 2.00034 39.2651 2 39V7C2.00034 6.73489 2.10581 6.48074 2.29327 6.29327C2.48073 6.10581 2.73489 6.00034 3 6H24V7C24 8.32608 24.5268 9.59785 25.4645 10.5355C26.4021 11.4732 27.6739 12 29 12C30.3261 12 31.5979 11.4732 32.5355 10.5355C33.4732 9.59785 34 8.32608 34 7V6H55C55.2651 6.00034 55.5193 6.10581 55.7067 6.29327C55.8942 6.48074 55.9997 6.73489 56 7V39Z" fill="#99A0AC"/>
<path d="M51 14H37C36.7348 14 36.4804 14.1054 36.2929 14.2929C36.1054 14.4804 36 14.7348 36 15C36 15.2652 36.1054 15.5196 36.2929 15.7071C36.4804 15.8946 36.7348 16 37 16H51C51.2652 16 51.5196 15.8946 51.7071 15.7071C51.8946 15.5196 52 15.2652 52 15C52 14.7348 51.8946 14.4804 51.7071 14.2929C51.5196 14.1054 51.2652 14 51 14Z" fill="#99A0AC"/>
<path d="M51 20H37C36.7348 20 36.4804 20.1054 36.2929 20.2929C36.1054 20.4804 36 20.7348 36 21C36 21.2652 36.1054 21.5196 36.2929 21.7071C36.4804 21.8946 36.7348 22 37 22H51C51.2652 22 51.5196 21.8946 51.7071 21.7071C51.8946 21.5196 52 21.2652 52 21C52 20.7348 51.8946 20.4804 51.7071 20.2929C51.5196 20.1054 51.2652 20 51 20Z" fill="#99A0AC"/>
<path d="M51 26H37C36.7348 26 36.4804 26.1054 36.2929 26.2929C36.1054 26.4804 36 26.7348 36 27C36 27.2652 36.1054 27.5196 36.2929 27.7071C36.4804 27.8946 36.7348 28 37 28H51C51.2652 28 51.5196 27.8946 51.7071 27.7071C51.8946 27.5196 52 27.2652 52 27C52 26.7348 51.8946 26.4804 51.7071 26.2929C51.5196 26.1054 51.2652 26 51 26Z" fill="#99A0AC"/>
<path d="M51 32H37C36.7348 32 36.4804 32.1054 36.2929 32.2929C36.1054 32.4804 36 32.7348 36 33C36 33.2652 36.1054 33.5196 36.2929 33.7071C36.4804 33.8946 36.7348 34 37 34H51C51.2652 34 51.5196 33.8946 51.7071 33.7071C51.8946 33.5196 52 33.2652 52 33C52 32.7348 51.8946 32.4804 51.7071 32.2929C51.5196 32.1054 51.2652 32 51 32Z" fill="#99A0AC"/>
<path d="M22.4058 23.4417C23.2486 22.4175 23.783 21.1749 23.9469 19.8586C24.1108 18.5424 23.8973 17.2067 23.3314 16.0071C22.7655 14.8074 21.8703 13.7933 20.7503 13.0827C19.6303 12.3722 18.3314 11.9944 17.005 11.9935C15.6786 11.9926 14.3792 12.3686 13.2582 13.0776C12.1372 13.7867 11.2408 14.7996 10.6732 15.9984C10.1056 17.1973 9.89035 18.5327 10.0524 19.8492C10.2145 21.1656 10.7473 22.409 11.5886 23.4344C9.88765 24.3843 8.47216 25.7725 7.48934 27.4547C6.50651 29.1369 5.99223 31.0517 5.99996 33V35C5.99996 35.2652 6.10532 35.5195 6.29286 35.7071C6.48039 35.8946 6.73475 36 6.99996 36H27C27.2652 36 27.5195 35.8946 27.7071 35.7071C27.8946 35.5195 28 35.2652 28 35V33C28.0081 31.052 27.4934 29.1374 26.5094 27.4562C25.5254 25.775 24.1082 24.3886 22.4058 23.4417ZM17 14C17.9889 14 18.9556 14.2932 19.7778 14.8426C20.6001 15.392 21.2409 16.1729 21.6194 17.0866C21.9978 18.0002 22.0968 19.0055 21.9039 19.9754C21.711 20.9453 21.2348 21.8362 20.5355 22.5355C19.8362 23.2348 18.9453 23.711 17.9754 23.9039C17.0055 24.0968 16.0002 23.9978 15.0865 23.6194C14.1729 23.2409 13.392 22.6001 12.8426 21.7778C12.2932 20.9556 12 19.9889 12 19C12.0015 17.6744 12.5288 16.4035 13.4661 15.4662C14.4035 14.5288 15.6744 14.0015 17 14ZM26 34H7.99996V33C7.99552 31.2886 8.4841 29.6121 9.40728 28.1711C10.3305 26.73 11.6492 25.5854 13.2057 24.874C14.3369 25.6101 15.6578 26.0014 17.0075 26C18.3571 25.9986 19.6772 25.6047 20.8069 24.8662C22.3618 25.5806 23.6783 26.7274 24.5992 28.1697C25.52 29.612 26.0063 31.2888 26 33V34Z" fill="#99A0AC"/>
</svg>
