<svg width="28" height="28" viewBox="0 0 28 28" fill="none" xmlns="http://www.w3.org/2000/svg">
<path fill-rule="evenodd" clip-rule="evenodd" d="M14 0C6.273 0 0 6.273 0 14C0 21.727 6.273 28 14 28C21.727 28 28 21.727 28 14C28 6.273 21.727 0 14 0ZM14 2C20.623 2 26 7.377 26 14C26 20.623 20.623 26 14 26C7.377 26 2 20.623 2 14C2 7.377 7.377 2 14 2ZM14 12.586L8.957 7.543C8.567 7.153 7.933 7.153 7.543 7.543C7.153 7.933 7.153 8.567 7.543 8.957L12.586 14L7.543 19.043C7.153 19.433 7.153 20.067 7.543 20.457C7.933 20.847 8.567 20.847 8.957 20.457L14 15.414L19.043 20.457C19.433 20.847 20.067 20.847 20.457 20.457C20.847 20.067 20.847 19.433 20.457 19.043L15.414 14L20.457 8.957C20.847 8.567 20.847 7.933 20.457 7.543C20.067 7.153 19.433 7.153 19.043 7.543L14 12.586Z" fill="#FF0000"/>
</svg>
