<svg width="60" height="60" viewBox="0 0 60 60" fill="none" xmlns="http://www.w3.org/2000/svg">
<g clip-path="url(#clip0_108_38)">
<path d="M21.3847 48.8233C23.3786 48.8259 25.3713 48.6657 27.3546 48.3433L12.524 25.0838C5.82273 26.8574 0.485886 30.6845 0.485886 36.379C0.485886 44.4593 11.2617 48.8233 21.3847 48.8233Z" stroke="#262626"/>
<path d="M30.2935 47.7127C31.5166 47.3958 32.7288 46.9825 33.9253 46.4744C33.2294 45.753 32.557 45.0331 31.92 44.3301C27.1544 38.9678 21.9265 31.369 19.3921 24.0101C18.0709 24.084 16.7418 24.2317 15.451 24.4532L30.2807 47.7127H30.2935Z" stroke="#262626"/>
<path d="M33.2893 41.3152C39.165 47.8972 46.1136 52.9626 50.7153 52.9626C51.5037 53.0802 52.2985 52.894 53.0306 52.4203C53.7626 51.9466 54.4097 51.1997 54.9154 50.2446L55.9186 48.0634C55.4768 48.1553 55.0313 48.1985 54.5856 48.1926C48.864 48.1926 41.1243 41.8136 35.7913 35.8422C30.4908 29.9077 23.1437 19.3139 21.8814 10.0138L20.9135 12.1397C17.904 18.7033 25.0538 32.072 33.2893 41.3152Z" stroke="#262626"/>
<path d="M37.1586 32.8288C38.7759 34.6384 40.4535 36.3118 42.1843 37.8419L38.7488 5.43609C32.6503 0.790646 26.8884 -0.962932 24.7711 3.65482C21.7744 10.2369 28.9134 23.6041 37.1586 32.8288Z" stroke="#262626"/>
<path d="M54.5836 44.4962C55.3719 44.6099 56.1659 44.422 56.8975 43.9485C57.6291 43.4751 58.2765 42.7303 58.7838 41.7782C60.1639 38.7279 59.5033 34.0686 56.8609 28.2633C53.9227 22.2099 50.391 16.9241 46.3973 12.6027C44.7803 10.7918 43.1027 9.11788 41.3716 7.58806L44.8071 40.0015C48.4105 42.755 51.899 44.4962 54.5836 44.4962Z" stroke="#262626"/>
<path d="M21.3847 59.2309C28.9585 59.2309 36.8995 56.7897 40.4146 52.1874C39.1169 51.226 37.8428 50.1723 36.6041 49.0448C31.682 51.4698 26.5437 52.6435 21.3847 52.5212C14.8719 52.5212 4.97366 50.5984 0.489808 44.1824V46.7897C0.485882 54.8669 11.2617 59.2309 21.3847 59.2309Z" stroke="#262626"/>
</g>
<defs>
<clipPath id="clip0_108_38">
<rect width="60" height="60" fill="white"/>
</clipPath>
</defs>
</svg>
