<svg width="94" height="94" viewBox="0 0 94 94" fill="none" xmlns="http://www.w3.org/2000/svg">
<path d="M84.5 0.125H9.5C4.332 0.125 0.125 4.332 0.125 9.5V84.5C0.125 89.668 4.332 93.875 9.5 93.875H84.5C89.668 93.875 93.875 89.668 93.875 84.5V9.5C93.875 4.332 89.668 0.125 84.5 0.125ZM87.625 84.5C87.625 86.2227 86.2266 87.625 84.5 87.625H9.5C7.7734 87.625 6.375 86.2227 6.375 84.5V9.5C6.375 7.7773 7.7734 6.375 9.5 6.375H84.5C86.2266 6.375 87.625 7.7773 87.625 9.5V84.5Z" fill="#99A0AC"/>
<path d="M21.844 17.965C21.844 16.2384 20.4456 14.84 18.719 14.84H18.0276C16.301 14.84 14.9026 16.2384 14.9026 17.965C14.9026 19.6916 16.301 21.09 18.0276 21.09H18.719C20.4456 21.09 21.844 19.6916 21.844 17.965Z" fill="#99A0AC"/>
<path d="M29.227 21.09H29.9184C31.645 21.09 33.0434 19.6916 33.0434 17.965C33.0434 16.2384 31.645 14.84 29.9184 14.84H29.227C27.5004 14.84 26.102 16.2384 26.102 17.965C26.102 19.6916 27.5004 21.09 29.227 21.09Z" fill="#99A0AC"/>
<path d="M75.973 14.84H69.8558C68.1292 14.84 66.7308 16.2384 66.7308 17.965C66.7308 19.6916 68.1292 21.09 69.8558 21.09H75.973C77.6996 21.09 79.098 19.6916 79.098 17.965C79.098 16.2423 77.6957 14.84 75.973 14.84Z" fill="#99A0AC"/>
<path d="M69.027 31.508H24.972C21.5267 31.508 18.722 34.3127 18.722 37.758V70.965C18.722 74.4103 21.5267 77.215 24.972 77.215H69.027C72.4723 77.215 75.277 74.4103 75.277 70.965V37.758C75.277 34.3049 72.4723 31.508 69.027 31.508ZM69.027 37.758V51.61L62.0036 45.5788C59.6442 43.5554 56.2184 43.5515 53.863 45.5788L41.34 56.3288L34.4884 50.4304C32.1251 48.3952 28.6954 48.3992 26.3361 50.4304L24.9767 51.5984V37.7544H69.0277L69.027 37.758ZM24.972 70.961V59.844L30.4056 55.1643L37.2572 61.0627C38.4369 62.0783 39.8861 62.5861 41.3353 62.5861C42.7806 62.5861 44.2259 62.0783 45.4056 61.0666L57.9286 50.3166L69.0266 59.8439V70.9569L24.972 70.961Z" fill="#99A0AC"/>
</svg>
