<svg width="60" height="60" viewBox="0 0 60 60" fill="none" xmlns="http://www.w3.org/2000/svg">
<path d="M30 0C24.0666 0 18.2664 1.75947 13.3329 5.05591C8.39943 8.35235 4.55426 13.0377 2.28363 18.5195C0.0129986 24.0013 -0.581102 30.0333 0.576455 35.8527C1.73401 41.6721 4.59124 47.0176 8.78681 51.2132C12.9824 55.4088 18.3279 58.266 24.1473 59.4236C29.9667 60.5811 35.9987 59.987 41.4805 57.7164C46.9623 55.4458 51.6477 51.6006 54.9441 46.6671C58.2405 41.7336 60 35.9334 60 30C60 22.0435 56.8393 14.4129 51.2132 8.7868C45.5871 3.16071 37.9565 0 30 0ZM32.8 10.83C35.72 10.83 36.58 12.53 36.58 14.47C36.58 16.89 34.64 19.13 31.33 19.13C28.56 19.13 27.24 17.74 27.33 15.44C27.33 13.5 29 10.83 32.8 10.83ZM25.31 48C23.31 48 21.85 46.78 23.25 41.46L25.54 32C25.94 30.49 26 29.88 25.54 29.88C23.8603 30.2963 22.264 30.9963 20.82 31.95L19.82 30.32C24.68 26.26 30.27 23.88 32.66 23.88C34.66 23.88 34.99 26.24 33.99 29.88L31.37 39.82C30.9 41.58 31.1 42.18 31.57 42.18C33.2294 41.812 34.7719 41.039 36.06 39.93L37.19 41.45C32.46 46.15 27.3 48 25.31 48Z" fill="black"/>
</svg>
