<svg width="326" height="326" viewBox="0 0 326 326" fill="none" xmlns="http://www.w3.org/2000/svg">
<path d="M162.685 0C252.524 0 325.37 72.8465 325.37 162.685C325.37 252.524 252.524 325.37 162.685 325.37C72.8464 325.37 0 252.524 0 162.685C0 72.8464 72.8465 0 162.685 0ZM162.685 26.6693C87.559 26.6693 26.669 87.5591 26.669 162.685C26.669 237.811 87.5588 298.701 162.685 298.701C237.811 298.701 298.701 237.812 298.701 162.685C298.701 87.5593 237.811 26.6693 162.685 26.6693Z" fill="#4BB543"/>
<path d="M90.172 144.081C79.424 130.258 58.3925 146.624 69.1326 160.435L129.896 238.561C135.361 245.593 145.471 245.589 150.936 238.561L256.267 103.136C267.007 89.3253 245.976 72.9591 235.227 86.782L140.416 208.684L90.172 144.081Z" fill="#4BB543"/>
</svg>
