<svg width="60" height="60" viewBox="0 0 60 60" fill="none" xmlns="http://www.w3.org/2000/svg">
<g clip-path="url(#clip0_154_2)">
<mask id="mask0_154_2" style="mask-type:luminance" maskUnits="userSpaceOnUse" x="0" y="0" width="60" height="60">
<path d="M60 0H0V60H60V0Z" fill="white"/>
</mask>
<g mask="url(#mask0_154_2)">
<path d="M45.8752 9.52429C38.1555 9.52429 31.8752 15.8046 31.8752 23.5243C32.6441 42.0972 59.1092 42.0918 59.8752 23.5242C59.8752 15.8046 53.595 9.52429 45.8752 9.52429ZM48.7649 13.8939C49.2845 12.6961 51.0977 13.429 50.6155 14.6542C50.0897 15.864 48.2816 15.1237 48.7649 13.8939ZM45.8655 12.5243C47.1791 12.5494 47.179 14.499 45.8654 14.5243C44.5516 14.4993 44.5519 12.5487 45.8655 12.5243ZM35.7053 19.3143C36.2315 18.1099 38.0375 18.8572 37.5549 20.0844C37.0175 21.2825 35.223 20.5374 35.7053 19.3143ZM34.8752 23.5741C34.8915 22.1953 36.8501 22.2129 36.8752 23.5244C36.8761 24.8732 34.9075 24.9024 34.8752 23.5741ZM37.0354 28.3143C35.8104 28.7813 35.0576 26.9993 36.265 26.4642C37.4805 25.9849 38.2332 27.7847 37.0354 28.3143ZM38.095 15.7543C39.0245 14.8131 40.4229 16.2382 39.5051 17.1639C38.5804 18.0748 37.1754 16.6835 38.095 15.7543ZM39.5354 31.3241C38.6162 32.2619 37.2001 30.8402 38.1155 29.9139C39.0422 28.9972 40.4575 30.3909 39.5354 31.3241ZM41.6555 13.3641C42.8762 12.8826 43.6325 14.6801 42.425 15.204C41.2066 15.7046 40.4464 13.8834 41.6555 13.3641ZM43.0051 33.1542C42.4785 34.3646 40.6706 33.6229 41.1555 32.3944C41.6708 31.1907 43.4802 31.9406 43.0051 33.1542ZM42.3752 29.5243C41.0613 29.5012 41.0601 27.5471 42.3753 27.5243H46.8752C47.7024 27.5243 48.3752 26.8514 48.3752 26.0243C48.3752 25.1971 47.7024 24.5243 46.8752 24.5243H44.8752C40.2506 24.3784 40.2508 17.6702 44.8752 17.5243V16.5243C44.8752 15.972 45.3225 15.5243 45.8752 15.5243C46.428 15.5243 46.8752 15.972 46.8752 16.5243V17.5243H49.3752C50.6891 17.5472 50.6904 19.5016 49.3752 19.5243H44.8752C44.0481 19.5243 43.3752 20.1971 43.3752 21.0243C43.3752 21.8514 44.0481 22.5243 44.8752 22.5243H46.8752C51.4998 22.6701 51.4997 29.3784 46.8752 29.5243V30.5243C46.8752 31.0765 46.428 31.5243 45.8752 31.5243C45.3225 31.5243 44.8752 31.0765 44.8752 30.5243V29.5243H42.3752ZM45.9055 34.5243C44.5917 34.4993 44.5919 32.549 45.9056 32.5243C47.2148 32.5401 47.2265 34.5024 45.9055 34.5243ZM50.1155 33.6737C48.9051 34.1707 48.133 32.3613 49.345 31.8339C50.5617 31.3402 51.3133 33.1591 50.1155 33.6737ZM52.2249 15.7343C53.1458 14.8174 54.5706 16.211 53.6447 17.1439C52.715 18.0794 51.303 16.667 52.2249 15.7343ZM53.6751 31.2841C52.7413 32.1942 51.3355 30.8103 52.2552 29.8738C53.1757 28.9475 54.5859 30.3599 53.6751 31.2841ZM56.0549 27.7142C55.538 28.9219 53.7006 28.1583 54.2053 26.9442C54.7326 25.7355 56.5178 26.4937 56.0549 27.7142ZM56.8752 23.5043C56.8498 24.8179 54.9005 24.8177 54.8752 23.5042C54.8908 22.1948 56.8537 22.1832 56.8752 23.5043ZM56.0354 19.2943C56.5154 20.5198 54.7157 21.2728 54.1848 20.0643C53.7075 18.8438 55.4965 18.0884 56.0354 19.2943Z" fill="#99A0AC"/>
<path d="M52.8752 55.1843C52.8838 55.5047 52.4678 55.624 52.2952 55.3542C51.4642 53.9982 49.2854 53.9994 48.4552 55.3543C46.5013 58.1841 47.2436 58.167 45.2952 55.3542C44.4653 53.9982 42.2846 53.9994 41.4552 55.3543C39.4963 58.1736 40.2591 58.1882 38.2952 55.3542C37.4664 53.9982 35.2837 53.9994 34.4552 55.3543C32.4911 58.1894 33.2532 58.1719 31.2952 55.3542C30.4676 53.9982 28.2829 53.9994 27.4552 55.3543C25.505 58.1544 26.2628 58.2048 24.2952 55.3542C23.4687 53.9982 21.2822 53.9994 20.4552 55.3543L19.1352 57.3343C18.9465 57.5513 18.7651 57.5058 18.6152 57.3343L17.2952 55.3542C16.4698 53.9982 14.2814 53.9994 13.4552 55.3543C13.2442 55.6252 12.8968 55.5072 12.8752 55.1843V10.5243C12.8752 9.42425 13.7752 8.52429 14.8752 8.52429H40.3052C44.962 6.69543 50.8775 7.46368 54.8652 10.2943C54.7452 8.19427 53.0052 6.52429 50.8752 6.52429H14.8752C12.6652 6.52429 10.8752 8.31427 10.8752 10.5243V55.1843C10.8309 57.4393 13.9091 58.3652 15.1152 56.4642C15.266 56.2736 15.4803 56.2691 15.6352 56.4642C16.4843 57.5832 17.1729 59.5389 18.8752 59.4742C20.5787 59.5381 21.2682 57.5808 22.1152 56.4643C22.2696 56.273 22.478 56.2691 22.6352 56.4642C23.4836 57.5816 24.1713 59.5381 25.8752 59.4742C27.579 59.538 28.268 57.5808 29.1152 56.4643C29.2739 56.2723 29.475 56.269 29.6352 56.4642L30.9553 58.4443C31.7834 59.7988 33.9672 59.8003 34.7952 58.4442L36.1152 56.4643C36.2795 56.2714 36.4712 56.2688 36.6353 56.4642C37.4802 57.5761 38.1693 59.5377 39.8752 59.4742C41.5801 59.5375 42.2675 57.5811 43.1152 56.4643C43.2755 56.2705 43.4745 56.2701 43.6353 56.4642C44.4843 57.5828 45.1697 59.5367 46.8752 59.4742C48.5808 59.5371 49.2671 57.5812 50.1152 56.4643C50.2925 56.2678 50.4688 56.2722 50.6353 56.4642C51.8337 58.3641 54.9278 57.4386 54.8752 55.1841V36.7443C54.2352 37.1743 53.5753 37.5643 52.8752 37.9043V55.1843Z" fill="#99A0AC"/>
<path d="M30.8752 12.5243H15.8752C15.3225 12.5243 14.8752 12.972 14.8752 13.5243C14.8752 14.0765 15.3225 14.5243 15.8752 14.5243H30.8752C32.1851 14.5036 32.1934 12.5467 30.8752 12.5243Z" fill="#99A0AC"/>
<path d="M30.8753 16.5243H15.8753C14.5651 16.5482 14.559 18.499 15.8753 18.5243H30.6753C30.8853 17.8943 31.1253 17.2743 31.4153 16.6843C31.2553 16.5843 31.0753 16.5243 30.8753 16.5243Z" fill="#99A0AC"/>
<path d="M29.9054 22.5243C29.9454 21.8443 30.0353 21.1743 30.1653 20.5243H15.8753C14.5629 20.549 14.5609 22.4992 15.8753 22.5243H29.9054Z" fill="#99A0AC"/>
<path d="M15.8753 26.5243H30.1653C30.0353 25.8743 29.9454 25.2043 29.9054 24.5243H15.8753C14.5629 24.549 14.5609 26.4992 15.8753 26.5243Z" fill="#99A0AC"/>
<path d="M15.8753 30.5243H30.8753C31.0754 30.5243 31.2553 30.4643 31.4153 30.3643C31.1253 29.7743 30.8854 29.1543 30.6753 28.5243H15.8753C14.563 28.549 14.5608 30.4992 15.8753 30.5243Z" fill="#99A0AC"/>
<path d="M30.8752 32.5243H15.8752C15.3225 32.5243 14.8752 32.9716 14.8752 33.5243C14.8752 34.077 15.3225 34.5243 15.8752 34.5243H30.8752C32.1851 34.504 32.1935 32.5463 30.8752 32.5243Z" fill="#99A0AC"/>
<path d="M30.8752 36.5243H15.8752C15.3225 36.5243 14.8752 36.9716 14.8752 37.5243C14.8752 38.077 15.3225 38.5243 15.8752 38.5243H30.8752C32.1851 38.504 32.1935 36.5463 30.8752 36.5243Z" fill="#99A0AC"/>
<path d="M30.8752 40.5243H15.8752C15.3225 40.5243 14.8752 40.9716 14.8752 41.5243C14.8752 42.077 15.3225 42.5243 15.8752 42.5243H30.8752C32.1851 42.504 32.1935 40.5463 30.8752 40.5243Z" fill="#99A0AC"/>
<path d="M15.8753 44.5243C14.5643 44.5449 14.5579 46.5023 15.8753 46.5243H30.8753C32.1852 46.504 32.1935 44.5463 30.8753 44.5243H15.8753Z" fill="#99A0AC"/>
<path d="M44.1253 4.52429C44.1253 2.31427 42.3354 0.524292 40.1253 0.524292H4.12534C1.91532 0.524292 0.125337 2.31427 0.125337 4.52429V49.1843C0.0761473 51.4337 3.16214 52.3682 4.36533 50.4642C4.44535 50.3443 4.56534 50.3243 4.62534 50.3243C4.68534 50.3243 4.80533 50.3443 4.88535 50.4643L6.20536 52.4443C6.75114 53.3013 7.91141 53.7035 8.87534 53.3443V40.1843C8.69535 40.3943 8.42533 40.5243 8.12534 40.5243H5.12534C4.57535 40.5243 4.12534 40.0743 4.12534 39.5243C4.12534 38.9743 4.57535 38.5243 5.12534 38.5243H8.12534C8.42533 38.5243 8.69535 38.6543 8.87534 38.8643V36.1843C8.69535 36.3943 8.42533 36.5243 8.12534 36.5243H5.12534C4.57535 36.5243 4.12534 36.0743 4.12534 35.5243C4.12534 34.9743 4.57535 34.5243 5.12534 34.5243H8.12534C8.42533 34.5243 8.69535 34.6543 8.87534 34.8643V32.1843C8.69535 32.3943 8.42533 32.5243 8.12534 32.5243H5.12534C4.57535 32.5243 4.12534 32.0743 4.12534 31.5243C4.12534 30.9743 4.57535 30.5243 5.12534 30.5243H8.12534C8.42533 30.5243 8.69535 30.6543 8.87534 30.8643V28.1843C8.69535 28.3943 8.42533 28.5243 8.12534 28.5243H5.12534C4.57535 28.5243 4.12534 28.0743 4.12534 27.5243C4.12534 26.9743 4.57535 26.5243 5.12534 26.5243H8.12534C8.42533 26.5243 8.69535 26.6543 8.87534 26.8643V24.1843C8.69535 24.3943 8.42533 24.5243 8.12534 24.5243H5.12534C4.57535 24.5243 4.12534 24.0743 4.12534 23.5243C4.12534 22.9743 4.57535 22.5243 5.12534 22.5243H8.12534C8.42533 22.5243 8.69535 22.6543 8.87534 22.8643V20.1843C8.69535 20.3943 8.42533 20.5243 8.12534 20.5243H5.12534C4.57535 20.5243 4.12534 20.0743 4.12534 19.5243C4.12534 18.9744 4.57535 18.5243 5.12534 18.5243H8.12534C8.42533 18.5243 8.69535 18.6543 8.87534 18.8643V16.1843C8.69535 16.3943 8.42533 16.5244 8.12534 16.5244H5.12534C4.57535 16.5244 4.12534 16.0743 4.12534 15.5244C4.12534 14.9744 4.57535 14.5244 5.12534 14.5244H8.12534C8.42533 14.5244 8.69535 14.6544 8.87534 14.8643V12.1843C8.69535 12.3944 8.42533 12.5244 8.12534 12.5244H5.12534C4.57535 12.5244 4.12534 12.0744 4.12534 11.5244C4.12534 10.9744 4.57535 10.5244 5.12534 10.5244H8.12534C8.42533 10.5244 8.69535 10.6544 8.87534 10.8643C8.70121 7.43995 11.4338 4.51374 14.8753 4.52436L44.1253 4.52429ZM8.12534 8.52429H5.12534C3.8126 8.49933 3.81113 6.54944 5.1254 6.52429H8.12534C9.43808 6.54919 9.43955 8.49914 8.12534 8.52429Z" fill="#99A0AC"/>
</g>
</g>
<defs>
<clipPath id="clip0_154_2">
<rect width="60" height="60" fill="white"/>
</clipPath>
</defs>
</svg>
