<svg width="60" height="60" viewBox="0 0 60 60" fill="none" xmlns="http://www.w3.org/2000/svg">
<path d="M27.2388 24.1256L26.6445 15.5171C26.618 15.1232 26.6808 14.7274 26.8278 14.3625C26.9748 13.9977 27.2017 13.6742 27.4898 13.419L40.0676 2.25395C40.3043 2.03559 40.5795 1.86884 40.8769 1.76347C41.1743 1.6581 41.4881 1.61621 41.7998 1.64026C42.1116 1.66431 42.4151 1.75381 42.6926 1.90352C42.97 2.05324 43.2159 2.26017 43.4159 2.51222C43.6158 2.76426 43.7657 3.05635 43.8569 3.37142C43.9481 3.68649 43.9788 4.0182 43.947 4.34716C43.9153 4.67612 43.8218 4.99573 43.6721 5.28729C43.5224 5.57885 43.3194 5.83651 43.075 6.04521L31.427 16.3849L32.0474 25.412L27.2405 24.1277L27.2388 24.1256ZM32.7665 35.8726L33.3609 44.4811C33.3877 44.8748 33.3252 45.2705 33.1787 45.6354C33.0321 46.0003 32.8056 46.3239 32.518 46.5794L19.9401 57.7445C19.4587 58.1557 18.8455 58.3525 18.2324 58.2927C17.6193 58.2329 17.0552 57.9212 16.6613 57.4246C16.2674 56.9281 16.0752 56.2863 16.126 55.6372C16.1767 54.9881 16.4664 54.3834 16.9328 53.9532L28.5781 43.6159L27.9577 34.5888L32.7654 35.8712L32.7665 35.8726Z" stroke="#707070"/>
<path d="M2.11324 39.1702C2.51233 39.6725 3.08545 39.9851 3.70671 40.0393C4.32796 40.0934 4.94653 39.8847 5.42651 39.4589L17.0745 29.1192L42.9005 36.013C43.2623 36.1093 43.6415 36.113 44.0067 36.0236C44.3719 35.9343 44.7124 35.7545 45.0002 35.4992L57.5807 24.3318C58.0606 23.9058 58.3625 23.2975 58.4198 22.6408C58.4772 21.984 58.2854 21.3326 57.8866 20.8299C57.4878 20.3271 56.9147 20.0142 56.2933 19.9599C55.672 19.9057 55.0533 20.1145 54.5734 20.5405L42.9254 30.8802L17.0973 23.9895C16.7354 23.8932 16.3562 23.8895 15.9911 23.9789C15.6259 24.0682 15.2853 24.248 14.9976 24.5033L2.4197 35.6683C1.94001 36.0945 1.63829 36.7026 1.58083 37.3592C1.52337 38.0159 1.71486 38.6672 2.11324 39.1702Z" stroke="#707070"/>
<path fill-rule="evenodd" clip-rule="evenodd" d="M42.9906 9.3092L51.5284 20.0694L49.7092 21.6837L41.1714 10.9235L42.9906 9.3092Z" stroke="#707070"/>
<path fill-rule="evenodd" clip-rule="evenodd" d="M36.4288 15.1294L44.9665 25.8896L43.1474 27.5039L34.6096 16.7437L36.4288 15.1294Z" stroke="#707070"/>
<path fill-rule="evenodd" clip-rule="evenodd" d="M23.5723 44.8701L15.0346 34.11L16.853 32.4962L25.3908 43.2564L23.5723 44.8701Z" stroke="#707070"/>
<path fill-rule="evenodd" clip-rule="evenodd" d="M17.0105 50.6903L8.47272 39.9302L10.2892 38.3182L18.827 49.0784L17.0105 50.6903Z" stroke="#707070"/>
</svg>
