<svg width="62" height="60" viewBox="0 0 62 60" fill="none" xmlns="http://www.w3.org/2000/svg">
<path d="M1.45007 21.9538C1.53125 24.5983 1.92593 27.1897 2.61123 29.5775C3.29652 31.9654 4.2588 34.1023 5.44227 35.8643L15.3225 50.6372C15.5465 50.9851 15.8419 51.1765 16.1478 51.1719C16.1692 51.1754 16.1907 51.1684 16.2098 51.1518C16.3717 51.1412 16.5306 51.0756 16.6768 50.959C16.823 50.8423 16.9534 50.6771 17.06 50.4734L30.9935 24.5266L44.9279 50.4734C45.0354 50.6754 45.166 50.8394 45.3121 50.9559C45.4581 51.0724 45.6165 51.139 45.7782 51.1518C45.8015 51.1684 45.8269 51.1753 45.8522 51.1719C46.1573 51.169 46.451 50.9787 46.6775 50.6372L56.5457 35.8643C58.9149 32.2923 60.34 27.2974 60.5085 21.974C60.6771 16.6505 59.5755 11.4325 57.445 7.46299C55.3145 3.49351 52.3289 1.09622 49.1422 0.796294C45.9555 0.496372 42.8275 2.31827 40.4435 5.86287L30.9935 20.022L21.5444 5.86575C19.7683 3.2059 17.5597 1.48556 15.1981 0.922281C12.8364 0.359007 10.4278 0.978108 8.27691 2.70128C6.12596 4.42446 4.32929 7.17431 3.11411 10.603C1.89894 14.0318 1.31984 17.9854 1.45007 21.9639V21.9538ZM45.6422 35.6171L51.6034 26.6668C51.8468 26.3012 52.1672 26.1121 52.4941 26.1411C52.821 26.1701 53.1276 26.4148 53.3465 26.8213C53.5654 27.2279 53.6786 27.763 53.6612 28.309C53.6439 28.855 53.4974 29.3671 53.254 29.7327L47.279 38.6844C47.1602 38.8796 47.0188 39.0325 46.8635 39.1337C46.7081 39.2349 46.5421 39.2824 46.3755 39.2732C46.2089 39.264 46.0451 39.1983 45.8941 39.0802C45.7431 38.9621 45.6081 38.794 45.4972 38.586C45.3863 38.3781 45.3019 38.1347 45.249 37.8706C45.1962 37.6065 45.176 37.3273 45.1897 37.0497C45.2034 36.7722 45.2508 36.5023 45.3288 36.2562C45.4069 36.0102 45.5141 35.7933 45.6439 35.6185L45.6422 35.6171ZM8.18922 12.9001C8.85453 11.6474 9.67249 10.6469 10.5883 9.96541C11.504 9.28395 12.4964 8.93734 13.499 8.94883C15.255 8.94774 16.9491 10.0327 18.2545 11.9945C18.3843 12.1693 18.4915 12.3862 18.5696 12.6322C18.6477 12.8783 18.695 13.1482 18.7087 13.4258C18.7224 13.7033 18.7023 13.9825 18.6494 14.2466C18.5965 14.5107 18.5121 14.7541 18.4012 14.962C18.2903 15.17 18.1553 15.3381 18.0043 15.4562C17.8533 15.5743 17.6895 15.64 17.5229 15.6492C17.3563 15.6584 17.1903 15.6109 17.035 15.5097C16.8796 15.4085 16.7383 15.2556 16.6194 15.0604C15.6986 13.6807 14.4881 12.9666 13.2527 13.0743C12.0174 13.1821 10.858 14.1029 10.0283 15.6353C9.92211 15.8404 9.79236 16.0078 9.64673 16.1276C9.50109 16.2473 9.34253 16.3169 9.18047 16.3324C9.0184 16.3478 8.85614 16.3087 8.7033 16.2173C8.55047 16.126 8.41018 15.9842 8.29077 15.8006C8.16873 15.6227 8.06914 15.406 7.99784 15.1631C7.92654 14.9202 7.88494 14.656 7.87549 14.3859C7.86603 14.1159 7.88891 13.8454 7.94277 13.5902C7.99664 13.3351 8.08042 13.1005 8.18922 12.9001Z" stroke="#707070"/>
<path d="M30.5994 46.5638C32.6407 46.5638 34.2955 43.7999 34.2955 40.3905C34.2955 36.981 32.6407 34.2171 30.5994 34.2171C28.5581 34.2171 26.9032 36.981 26.9032 40.3905C26.9032 43.7999 28.5581 46.5638 30.5994 46.5638Z" stroke="#707070"/>
<path d="M36.7723 59.2813C38.8136 59.2813 40.4684 56.5174 40.4684 53.108C40.4684 49.6985 38.8136 46.9346 36.7723 46.9346C34.731 46.9346 33.0761 49.6985 33.0761 53.108C33.0761 56.5174 34.731 59.2813 36.7723 59.2813Z" stroke="#707070"/>
<path d="M24.4274 59.2813C26.4687 59.2813 28.1235 56.5174 28.1235 53.108C28.1235 49.6985 26.4687 46.9346 24.4274 46.9346C22.386 46.9346 20.7312 49.6985 20.7312 53.108C20.7312 56.5174 22.386 59.2813 24.4274 59.2813Z" stroke="#707070"/>
</svg>
