<svg width="60" height="60" viewBox="0 0 60 60" fill="none" xmlns="http://www.w3.org/2000/svg">
<g clip-path="url(#clip0_108_20)">
<path d="M32.6626 49.9444H27.3374V59.5104H32.6626V49.9444Z" stroke="#707070"/>
<path d="M43.4636 16.7186H16.535V25.1019H43.4636V16.7186Z" stroke="#707070"/>
<path d="M44.0584 0.489564H15.9388C13.8681 0.488939 11.8191 0.779739 9.91702 1.34417C8.01497 1.9086 6.29993 2.73478 4.87686 3.77216C3.45379 4.80954 2.35263 6.03628 1.64077 7.37732C0.928903 8.71836 0.62131 10.1455 0.736818 11.5713L2.42765 32.2809C2.82698 37.1369 5.90601 41.7034 11.0329 45.0432C16.1597 48.383 22.9456 50.2428 29.9979 50.241C37.0502 50.2428 43.836 48.383 48.9629 45.0432C54.0897 41.7034 57.1688 37.1369 57.5681 32.2809L59.2589 11.5713C59.3744 10.1456 59.0669 8.71852 58.3551 7.37755C57.6433 6.03658 56.5423 4.80988 55.1194 3.77251C53.6964 2.73515 51.9816 1.90895 50.0797 1.34446C48.1778 0.779971 46.1289 0.489072 44.0584 0.489564ZM25.6352 37.6847H16.907V34.012H25.6352V37.6847ZM43.0902 37.6847H34.362V34.012H43.0902V37.6847ZM48.7831 26.9378C48.7831 27.4247 48.5026 27.8916 48.0034 28.2359C47.5042 28.5802 46.8272 28.7736 46.1212 28.7736H13.8717C13.1657 28.7736 12.4887 28.5802 11.9895 28.2359C11.4903 27.8916 11.2098 27.4247 11.2098 26.9378V14.8828C11.2098 14.3958 11.4903 13.9289 11.9895 13.5846C12.4887 13.2403 13.1657 13.0469 13.8717 13.0469H46.1255C46.8307 13.0477 47.5067 13.2414 48.0049 13.5856C48.5032 13.9298 48.7831 14.3964 48.7831 14.8828V26.9378Z" stroke="#707070"/>
</g>
<defs>
<clipPath id="clip0_108_20">
<rect width="60" height="60" fill="white"/>
</clipPath>
</defs>
</svg>
