<svg width="62" height="60" viewBox="0 0 62 60" fill="none" xmlns="http://www.w3.org/2000/svg">
<path d="M47.5935 14.1299C47.5135 14.0274 47.4501 13.9057 47.4069 13.7718C47.3636 13.6379 47.3414 13.4943 47.3414 13.3494C47.3414 13.2044 47.3636 13.0609 47.4069 12.927C47.4501 12.7931 47.5135 12.6714 47.5935 12.5689L48.9681 10.8058C49.048 10.703 49.1429 10.6215 49.2474 10.5658C49.3519 10.5101 49.4639 10.4814 49.577 10.4812C49.6902 10.4811 49.8022 10.5095 49.9068 10.5649C50.0114 10.6202 50.1064 10.7015 50.1865 10.804C50.2666 10.9065 50.3302 11.0282 50.3736 11.1622C50.417 11.2962 50.4394 11.4399 50.4395 11.585C50.4397 11.7301 50.4175 11.8738 50.3743 12.008C50.3312 12.1421 50.2678 12.264 50.1879 12.3667L48.8132 14.1299C48.7333 14.2324 48.6385 14.3137 48.534 14.3692C48.4296 14.4246 48.3177 14.4532 48.2047 14.4532C48.0917 14.4532 47.9798 14.4246 47.8754 14.3692C47.771 14.3137 47.6761 14.2324 47.5962 14.1299H47.5935ZM53.2515 14.1628C53.3314 14.2653 53.4263 14.3466 53.5307 14.4021C53.6351 14.4575 53.747 14.4861 53.8601 14.4861C53.9731 14.4861 54.085 14.4575 54.1894 14.4021C54.2938 14.3466 54.3886 14.2653 54.4686 14.1628C54.5485 14.0603 54.6119 13.9386 54.6551 13.8047C54.6984 13.6708 54.7206 13.5273 54.7206 13.3823C54.7206 13.2374 54.6984 13.0938 54.6551 12.9599C54.6119 12.826 54.5485 12.7043 54.4686 12.6018L53.0939 10.8387C52.9325 10.6317 52.7136 10.5154 52.4854 10.5154C52.2572 10.5154 52.0383 10.6317 51.8769 10.8387C51.7155 11.0457 51.6248 11.3264 51.6248 11.6192C51.6248 11.9119 51.7155 12.1926 51.8769 12.3996L53.2515 14.1628ZM52.5129 8.99089C52.626 8.9912 52.738 8.96292 52.8426 8.90766C52.9472 8.8524 53.0422 8.77124 53.1223 8.66882L54.497 6.90567C54.5801 6.80407 54.6465 6.68219 54.6924 6.54718C54.7383 6.41218 54.7626 6.26678 54.764 6.11952C54.7655 5.97227 54.7439 5.82614 54.7007 5.68972C54.6574 5.5533 54.5934 5.42934 54.5122 5.32513C54.4311 5.22092 54.3346 5.13856 54.2283 5.0829C54.122 5.02723 54.0081 4.99938 53.8933 5.00099C53.7785 5.00259 53.6651 5.03362 53.5597 5.09224C53.4544 5.15086 53.3593 5.23589 53.2799 5.34234L51.9053 7.10549C51.7859 7.25996 51.7048 7.45622 51.6721 7.66962C51.6394 7.88303 51.6566 8.10406 51.7215 8.30498C51.7864 8.5059 51.8962 8.67775 52.037 8.79894C52.1777 8.92014 52.3433 8.98528 52.5129 8.98619V8.99089ZM49.0029 8.63826C49.1643 8.84526 49.3832 8.96155 49.6115 8.96155C49.8397 8.96155 50.0586 8.84526 50.22 8.63826C50.3813 8.43126 50.472 8.15051 50.472 7.85777C50.472 7.56503 50.3813 7.28428 50.22 7.07728L48.8453 5.31413C48.7654 5.21164 48.6705 5.13033 48.5661 5.07486C48.4617 5.01939 48.3498 4.99084 48.2368 4.99084C48.1238 4.99084 48.0119 5.01939 47.9075 5.07486C47.8031 5.13033 47.7082 5.21164 47.6283 5.31413C47.5484 5.41663 47.485 5.53831 47.4417 5.67222C47.3985 5.80614 47.3762 5.94967 47.3762 6.09462C47.3762 6.23957 47.3985 6.3831 47.4417 6.51702C47.485 6.65093 47.5484 6.77261 47.6283 6.87511L49.0029 8.63826ZM6.6315 42.7399V40.6242C6.6315 40.4792 6.60925 40.3357 6.566 40.2018C6.52275 40.0679 6.45937 39.9462 6.37946 39.8437C6.29955 39.7412 6.20469 39.6599 6.10028 39.6044C5.99588 39.549 5.88398 39.5204 5.77097 39.5204C5.65796 39.5204 5.54606 39.549 5.44166 39.6044C5.33725 39.6599 5.24239 39.7412 5.16248 39.8437C5.08257 39.9462 5.01919 40.0679 4.97594 40.2018C4.9327 40.3357 4.91044 40.4792 4.91044 40.6242V42.7399C4.91044 42.8849 4.9327 43.0284 4.97594 43.1623C5.01919 43.2962 5.08257 43.4179 5.16248 43.5204C5.24239 43.6229 5.33725 43.7042 5.44166 43.7597C5.54606 43.8151 5.65796 43.8437 5.77097 43.8437C5.88398 43.8437 5.99588 43.8151 6.10028 43.7597C6.20469 43.7042 6.29955 43.6229 6.37946 43.5204C6.45937 43.4179 6.52275 43.2962 6.566 43.1623C6.60925 43.0284 6.6315 42.8849 6.6315 42.7399ZM5.77005 36.4631C5.99828 36.4631 6.21716 36.3468 6.37854 36.1398C6.53993 35.9329 6.63059 35.6521 6.63059 35.3594V33.2436C6.63059 32.9509 6.53993 32.6701 6.37854 32.4632C6.21716 32.2562 5.99828 32.1399 5.77005 32.1399C5.54183 32.1399 5.32295 32.2562 5.16157 32.4632C5.00018 32.6701 4.90952 32.9509 4.90952 33.2436V35.3594C4.90952 35.6521 5.00018 35.9329 5.16157 36.1398C5.32295 36.3468 5.54183 36.4631 5.77005 36.4631ZM7.81004 39.0867H8.34341C8.57163 39.0867 8.79052 38.9704 8.9519 38.7634C9.11328 38.5564 9.20394 38.2757 9.20394 37.983C9.20394 37.6902 9.11328 37.4095 8.9519 37.2025C8.79052 36.9955 8.57163 36.8792 8.34341 36.8792H7.81004C7.58181 36.8792 7.36293 36.9955 7.20155 37.2025C7.04017 37.4095 6.94951 37.6902 6.94951 37.983C6.94951 38.2757 7.04017 38.5564 7.20155 38.7634C7.36293 38.9704 7.58181 39.0867 7.81004 39.0867ZM3.71082 36.8757H3.17929C2.95106 36.8757 2.73218 36.992 2.5708 37.199C2.40942 37.406 2.31876 37.6867 2.31876 37.9794C2.31876 38.2722 2.40942 38.5529 2.5708 38.7599C2.73218 38.9669 2.95106 39.0832 3.17929 39.0832H3.71082C3.93905 39.0832 4.15793 38.9669 4.31931 38.7599C4.48069 38.5529 4.57136 38.2722 4.57136 37.9794C4.57136 37.6867 4.48069 37.406 4.31931 37.199C4.15793 36.992 3.93905 36.8757 3.71082 36.8757ZM2.31876 57.2048C2.14856 57.2048 1.98218 57.2696 1.84067 57.3908C1.69915 57.5121 1.58886 57.6845 1.52373 57.8862C1.45859 58.0879 1.44155 58.3098 1.47476 58.5239C1.50796 58.738 1.58992 58.9347 1.71027 59.089C1.83061 59.2434 1.98395 59.3485 2.15087 59.3911C2.3178 59.4337 2.49083 59.4118 2.64807 59.3283C2.80531 59.2447 2.93971 59.1033 3.03426 58.9218C3.12882 58.7402 3.17929 58.5268 3.17929 58.3086C3.17929 58.0158 3.08863 57.7351 2.92724 57.5281C2.76586 57.3211 2.54698 57.2048 2.31876 57.2048ZM60.4318 56.7981C60.3661 56.9736 60.2638 57.1222 60.1361 57.2275C60.0084 57.3327 59.8605 57.3904 59.7087 57.3941C57.1672 57.6144 54.6415 58.0721 52.1518 58.7634C51.2907 58.9896 50.4144 59.1077 49.5354 59.1161C48.4231 59.1602 47.315 58.9215 46.2751 58.4137C45.2351 57.906 44.2837 57.1391 43.4759 56.1575C43.118 57.1279 42.5527 57.948 41.8457 58.5225C41.1387 59.097 40.319 59.4023 39.4821 59.4029H6.19436C5.96614 59.4029 5.74726 59.2866 5.58587 59.0796C5.42449 58.8726 5.33383 58.5919 5.33383 58.2991C5.33383 58.0064 5.42449 57.7257 5.58587 57.5187C5.74726 57.3117 5.96614 57.1954 6.19436 57.1954H17.3474C16.7449 56.2053 16.4178 54.9851 16.4181 53.7291V26.7517C16.4145 26.6773 16.4203 26.6026 16.4355 26.5307C16.4557 25.0794 16.7181 23.6504 17.2052 22.3402C17.6922 21.0299 18.3926 19.8688 19.2591 18.9351L19.9996 18.1123C20.7079 17.3586 21.2722 16.4068 21.6491 15.33C21.7488 15.0649 21.9245 14.8594 22.1395 14.7564C22.3545 14.6535 22.5922 14.661 22.8029 14.7775C22.9064 14.8391 22.9993 14.9264 23.0762 15.0344C23.1531 15.1424 23.2125 15.2689 23.251 15.4066C23.2894 15.5443 23.3062 15.6904 23.3002 15.8365C23.2942 15.9825 23.2657 16.1256 23.2163 16.2574C22.7247 17.6231 22.008 18.8358 21.1158 19.8119L20.3579 20.6347C19.1807 21.9058 18.4143 23.6933 18.2079 25.6491H42.1159C41.9086 23.6938 41.1416 21.9072 39.9641 20.6371L39.2236 19.8143C38.3335 18.8522 37.6181 17.6522 37.1274 16.2984C36.6366 14.9445 36.3825 13.4695 36.3827 11.9765V11.9107H22.4061C21.725 11.9051 21.0732 11.5546 20.5926 10.9355C20.112 10.3165 19.8415 9.47897 19.8401 8.60535V3.8801C19.8416 3.00779 20.1124 2.17174 20.5933 1.55492C21.0742 0.938103 21.726 0.590753 22.4061 0.58889H37.915C38.5951 0.590753 39.2469 0.938103 39.7278 1.55492C40.2087 2.17174 40.4795 3.00779 40.481 3.8801V8.60535C40.4828 9.43748 40.2388 10.2396 39.798 10.8502C39.3573 11.4609 38.7526 11.8347 38.1056 11.8966V11.9847C38.1048 13.1535 38.3031 14.3085 38.6867 15.3687C39.0702 16.4289 39.6298 17.3689 40.3261 18.1228L41.084 18.9456C41.9446 19.8844 42.6398 21.0471 43.1236 22.3566C43.6074 23.6661 43.8687 25.0925 43.8901 26.5413C43.9053 26.6132 43.9112 26.6879 43.9075 26.7623V47.7061C46.0988 43.9593 48.4426 40.3633 50.9293 36.9333C51.0043 36.8191 51.0966 36.7256 51.2006 36.6584C51.3046 36.5913 51.4181 36.5519 51.5344 36.5427C51.6506 36.5335 51.767 36.5546 51.8767 36.6048C51.9863 36.655 52.0869 36.7333 52.1723 36.8348C52.2577 36.9363 52.3262 37.0589 52.3736 37.1954C52.4209 37.3318 52.4462 37.4791 52.4479 37.6284C52.4496 37.7777 52.4276 37.926 52.3833 38.0641C52.3391 38.2022 52.2734 38.3274 52.1903 38.432C50.8816 40.2868 48.0068 44.4373 46.1821 47.4828C46.6642 47.2618 47.1976 47.0408 47.8006 46.8422C48.8469 46.5071 49.9361 46.4551 50.9989 46.6894C52.6779 44.6565 53.7097 41.8975 53.8949 38.9456C53.9667 36.6911 54.2294 34.4532 54.6784 32.2715C51.9969 33.3323 49.4669 34.9427 47.1866 37.0403C47.097 37.129 46.9947 37.1943 46.8855 37.2323C46.7763 37.2704 46.6623 37.2805 46.5501 37.262C46.4378 37.2436 46.3295 37.197 46.2313 37.1248C46.1331 37.0527 46.047 36.9565 45.9778 36.8416C45.9086 36.7268 45.8577 36.5956 45.828 36.4555C45.7984 36.3154 45.7905 36.1692 45.8049 36.0253C45.8193 35.8813 45.8556 35.7424 45.9118 35.6164C45.9681 35.4905 46.0431 35.38 46.1327 35.2912C49.1624 32.5549 52.562 30.5641 56.1585 29.4199C56.3651 29.3567 56.5826 29.3937 56.7692 29.5238C56.9557 29.654 57.0982 29.868 57.1692 30.1247C57.2402 30.3815 57.2346 30.6628 57.1536 30.9146C57.0726 31.1664 56.9218 31.3709 56.7303 31.4887C56.7816 31.4887 55.9312 32.8134 55.6114 39.0902C55.433 42.1612 54.4717 45.0716 52.8758 47.3723C55.9313 49.2097 58.5338 52.0895 60.3988 55.6967C60.4791 55.8605 60.5244 56.0485 60.5302 56.2418C60.536 56.4351 60.502 56.6269 60.4318 56.7981ZM24.1089 4.80517C24.1089 4.51244 24.0182 4.2317 23.8568 4.02471C23.6954 3.81772 23.4766 3.70144 23.2483 3.70144C23.0201 3.70144 22.8012 3.81772 22.6398 4.02471C22.4785 4.2317 22.3878 4.51244 22.3878 4.80517V7.70026C22.3878 7.99299 22.4785 8.27373 22.6398 8.48072C22.8012 8.68771 23.0201 8.804 23.2483 8.804C23.4766 8.804 23.6954 8.68771 23.8568 8.48072C24.0182 8.27373 24.1089 7.99299 24.1089 7.70026V4.80517ZM27.5693 4.80517C27.5693 4.51244 27.4787 4.2317 27.3173 4.02471C27.1559 3.81772 26.937 3.70144 26.7088 3.70144C26.4806 3.70144 26.2617 3.81772 26.1003 4.02471C25.9389 4.2317 25.8483 4.51244 25.8483 4.80517V7.70026C25.8483 7.99299 25.9389 8.27373 26.1003 8.48072C26.2617 8.68771 26.4806 8.804 26.7088 8.804C26.937 8.804 27.1559 8.68771 27.3173 8.48072C27.4787 8.27373 27.5693 7.99299 27.5693 7.70026V4.80517ZM31.0298 4.80517C31.0298 4.51244 30.9391 4.2317 30.7777 4.02471C30.6164 3.81772 30.3975 3.70144 30.1693 3.70144C29.941 3.70144 29.7221 3.81772 29.5608 4.02471C29.3994 4.2317 29.3087 4.51244 29.3087 4.80517V7.70026C29.3087 7.99299 29.3994 8.27373 29.5608 8.48072C29.7221 8.68771 29.941 8.804 30.1693 8.804C30.3975 8.804 30.6164 8.68771 30.7777 8.48072C30.9391 8.27373 31.0298 7.99299 31.0298 7.70026V4.80517ZM34.4903 4.80517C34.4903 4.51244 34.3996 4.2317 34.2382 4.02471C34.0768 3.81772 33.8579 3.70144 33.6297 3.70144C33.4015 3.70144 33.1826 3.81772 33.0212 4.02471C32.8598 4.2317 32.7692 4.51244 32.7692 4.80517V7.70026C32.7692 7.99299 32.8598 8.27373 33.0212 8.48072C33.1826 8.68771 33.4015 8.804 33.6297 8.804C33.8579 8.804 34.0768 8.68771 34.2382 8.48072C34.3996 8.27373 34.4903 7.99299 34.4903 7.70026V4.80517ZM37.0893 8.80164C37.3175 8.80164 37.5364 8.68536 37.6978 8.47837C37.8591 8.27138 37.9498 7.99064 37.9498 7.69791V4.80517C37.9498 4.51244 37.8591 4.2317 37.6978 4.02471C37.5364 3.81772 37.3175 3.70144 37.0893 3.70144C36.861 3.70144 36.6422 3.81772 36.4808 4.02471C36.3194 4.2317 36.2287 4.51244 36.2287 4.80517V7.70026C36.2287 7.99299 36.3194 8.27373 36.4808 8.48072C36.6422 8.68771 36.861 8.804 37.0893 8.804V8.80164ZM27.8617 41.5892V43.2889C27.8617 43.5816 27.9523 43.8623 28.1137 44.0693C28.2751 44.2763 28.494 44.3926 28.7222 44.3926H31.6145C31.8427 44.3926 32.0616 44.2763 32.223 44.0693C32.3843 43.8623 32.475 43.5816 32.475 43.2889V41.5892H33.8002C34.0284 41.5892 34.2473 41.4729 34.4087 41.2659C34.57 41.0589 34.6607 40.7782 34.6607 40.4855V36.7758C34.6607 36.4831 34.57 36.2023 34.4087 35.9953C34.2473 35.7883 34.0284 35.6721 33.8002 35.6721H32.475V33.95C32.475 33.6573 32.3843 33.3766 32.223 33.1696C32.0616 32.9626 31.8427 32.8463 31.6145 32.8463H28.7231C28.4949 32.8463 28.276 32.9626 28.1146 33.1696C27.9532 33.3766 27.8626 33.6573 27.8626 33.95V35.6721H26.5191C26.2909 35.6721 26.072 35.7883 25.9106 35.9953C25.7492 36.2023 25.6586 36.4831 25.6586 36.7758V40.4855C25.6586 40.7782 25.7492 41.0589 25.9106 41.2659C26.072 41.4729 26.2909 41.5892 26.5191 41.5892H27.8617ZM42.1847 53.7338V52.1657H18.1355V53.7338C18.137 54.6525 18.4222 55.5331 18.9287 56.1828C19.4352 56.8325 20.1218 57.1983 20.8381 57.2001H39.4821C39.8372 57.2012 40.189 57.1123 40.5173 56.9385C40.8456 56.7647 41.1438 56.5094 41.395 56.1873C41.6461 55.8652 41.8451 55.4826 41.9807 55.0616C42.1162 54.6405 42.1855 54.1893 42.1847 53.7338ZM58.039 55.3676C56.3116 52.3719 53.8987 50.142 51.1364 48.9885C51.0851 48.9662 51.0328 48.9662 50.9989 48.9439C50.0774 48.7052 49.1268 48.7204 48.2102 48.9885C47.0402 49.3387 45.9232 49.9344 44.9046 50.7517L44.8909 50.7646C48.123 50.1536 51.4239 50.7421 54.4035 52.4608C54.5733 52.576 54.7081 52.7607 54.7866 52.9856C54.865 53.2105 54.8825 53.4625 54.8364 53.7017C54.7902 53.9408 54.683 54.1532 54.5318 54.3052C54.3806 54.4571 54.1942 54.5398 54.0021 54.5401C53.8615 54.5411 53.7229 54.4971 53.5989 54.412C50.5464 52.7097 47.1481 52.3116 43.9057 53.2765V53.3999C44.5355 54.5596 45.3873 55.492 46.3791 56.1077C47.3709 56.7234 48.4695 57.0016 49.5693 56.9157C50.3216 56.9118 51.0715 56.8082 51.8072 56.6065C54.5098 55.9013 56.679 55.5486 58.039 55.3676Z" stroke="#707070"/>
</svg>
